<svg width="41" height="40" viewBox="0 0 41 40" fill="none" xmlns="http://www.w3.org/2000/svg">
<g clip-path="url(#clip0_1690_5420)">
<path d="M11.1667 21.6667H12.8334V33.3333H11.1667V21.6667ZM19.5 33.3333H21.1667V21.6667H19.5V33.3333ZM27.8334 33.3333H29.5V21.6667H27.8334V33.3333ZM40.81 15L37.54 36.25C37.2067 38.4233 35.3684 40 33.1684 40H7.49836C5.29836 40 3.46002 38.4233 3.12669 36.25L-0.143311 15H3.71002C3.80836 13.555 4.14002 12.1483 4.72836 10.8117L6.22002 7.425C6.73836 6.25167 7.00002 5.00667 7.00002 3.72667V1.66667H5.33336V0H20.3334V1.66667H18.6667V3.72667C18.6667 5.00667 18.9284 6.25167 19.4467 7.425L20.94 10.8133C21.5284 12.1483 21.86 13.5533 21.9567 15H22.135C22.8467 13.4817 24.14 10.985 24.14 10.985C28.0834 3.36167 33.2884 -1.14167 36.5334 0.253333C37.3284 0.598333 37.9334 1.28333 38.2834 2.23333C39.2667 4.90167 38.3217 9.76667 35.8367 14.9983H40.8117L40.81 15ZM23.9784 15H34.0117C36.405 10.11 37.5517 5.07167 36.7184 2.81167C36.525 2.285 36.2467 1.94667 35.8684 1.785C34.3784 1.14 31.4634 3.065 28.5717 6.97333L32.4267 9.28667L31.57 10.715L27.615 8.34167C26.9334 9.37333 26.2617 10.5083 25.62 11.75C25.62 11.75 24.5717 13.77 23.9767 15H23.9784ZM5.37669 15H20.2884C20.1934 13.7867 19.9067 12.6067 19.4134 11.4867L17.92 8.09667C17.31 6.71167 17 5.24 17 3.72833V1.66833H8.66669V3.72833C8.66669 5.24 8.35669 6.71167 7.74669 8.09667L6.25336 11.485C5.75669 12.6083 5.47002 13.7883 5.37669 15ZM38.8667 16.6667H1.80002L4.77336 35.9967C4.98169 37.35 6.12669 38.3333 7.49836 38.3333H33.1684C34.5384 38.3333 35.685 37.35 35.8934 35.9967L38.8667 16.6667Z" fill="#363636"/>
</g>
<defs>
<clipPath id="clip0_1690_5420">
<rect width="40" height="40" fill="white" transform="translate(0.333252)"/>
</clipPath>
</defs>
</svg>
