<svg width="24" height="25" viewBox="0 0 24 25" fill="none" xmlns="http://www.w3.org/2000/svg">
<g clip-path="url(#clip0_1885_5433)">
<path d="M20.485 14.9645C20.076 14.8545 19.763 14.5825 19.628 14.2165C18.714 11.7505 16.314 10.1785 13.702 10.3085C10.651 10.4565 8.15 12.9635 8.008 16.0155C7.984 16.5325 8.026 17.0495 8.132 17.5535C8.182 17.7865 8.081 18.0115 7.888 18.1015C6.423 18.7785 5.686 20.4155 6.135 21.9935C6.432 23.0385 7.265 23.8715 8.309 24.1685C8.593 24.2495 8.882 24.2935 9.168 24.3015C9.509 24.3095 13.264 24.3085 14.513 24.3035C16.5 24.2965 18.432 24.2895 19.173 24.3015C19.589 24.3145 20.01 24.2605 20.424 24.1615C22.112 23.7545 23.463 22.3995 23.864 20.7075C24.468 18.1585 22.983 15.6355 20.485 14.9645ZM22.89 20.4765C22.575 21.8055 21.514 22.8705 20.188 23.1895C19.856 23.2695 19.523 23.3125 19.187 23.3015C18.443 23.2885 16.503 23.2955 14.507 23.3035C12.264 23.3115 9.943 23.3205 9.193 23.3015C8.99 23.2965 8.784 23.2645 8.581 23.2065C7.879 23.0075 7.295 22.4235 7.095 21.7205C6.778 20.6015 7.276 19.4875 8.307 19.0095C8.927 18.7225 9.257 18.0385 9.11 17.3465C9.021 16.9265 8.986 16.4935 9.006 16.0625C9.123 13.5625 11.252 11.4305 13.751 11.3085C16.36 11.3085 17.958 12.5885 18.69 14.5645C18.94 15.2375 19.5 15.7355 20.227 15.9305C22.199 16.4605 23.37 18.4575 22.891 20.4765H22.89ZM5.656 15.1465C5.432 14.8975 5.231 14.6335 5.052 14.3575L2.033 16.1365C1.953 16.1835 1.866 16.2055 1.779 16.2055C1.608 16.2055 1.441 16.1175 1.348 15.9595C1.207 15.7215 1.286 15.4155 1.525 15.2745L4.571 13.4785C4.264 12.7975 4.077 12.0645 4.019 11.3115H0.5C0.224 11.3115 0 11.0875 0 10.8115C0 10.5355 0.224 10.3115 0.5 10.3115H4.019C4.083 9.4685 4.31 8.6695 4.666 7.9475L1.636 6.1735C1.398 6.0335 1.318 5.7275 1.457 5.4895C1.597 5.2495 1.901 5.1715 2.142 5.3105L5.176 7.0875C5.627 6.4445 6.191 5.8875 6.839 5.4435L5.041 2.4105C4.899 2.1735 4.979 1.8665 5.216 1.7255C5.453 1.5855 5.761 1.6625 5.901 1.9005L7.706 4.9435C8.41 4.6065 9.185 4.3925 10.001 4.3305V0.8125C10.001 0.5365 10.225 0.3125 10.501 0.3125C10.777 0.3125 11.001 0.5365 11.001 0.8125V4.3315C11.827 4.3935 12.623 4.6125 13.352 4.9675L15.14 1.9135C15.279 1.6745 15.585 1.5955 15.825 1.7345C16.063 1.8745 16.143 2.1805 16.004 2.4185L14.215 5.4745C14.714 5.8235 15.168 6.2445 15.562 6.7325C15.73 6.9405 16.009 6.9895 16.225 6.8515L18.785 5.1995C19.016 5.0515 19.326 5.1155 19.476 5.3485C19.626 5.5805 19.559 5.8905 19.328 6.0395L16.768 7.6915C16.123 8.1085 15.272 7.9645 14.785 7.3605C13.734 6.0595 12.174 5.3125 10.503 5.3125C7.471 5.3125 5.003 7.7795 5.003 10.8125C5.003 12.1675 5.5 13.4705 6.403 14.4795C6.588 14.6855 6.57 15.0015 6.364 15.1855C6.16 15.3685 5.843 15.3525 5.659 15.1465H5.656Z" fill="#363636"/>
</g>
<defs>
<clipPath id="clip0_1885_5433">
<rect width="24" height="24" fill="white" transform="translate(0 0.3125)"/>
</clipPath>
</defs>
</svg>
