<svg width="24" height="25" viewBox="0 0 24 25" fill="none" xmlns="http://www.w3.org/2000/svg">
<g clip-path="url(#clip0_1885_5417)">
<path d="M12.7869 12.0452L0.853884 23.9792C0.755884 24.0772 0.627884 24.1252 0.499884 24.1252C0.371884 24.1252 0.243884 24.0762 0.145884 23.9792C-0.0491162 23.7842 -0.0491162 23.4672 0.145884 23.2722L12.0799 11.3382C10.5389 9.44125 10.6499 6.64025 12.4149 4.87425L17.0179 0.271246C17.2129 0.0762457 17.5299 0.0762457 17.7249 0.271246C17.9199 0.466246 17.9199 0.783246 17.7249 0.978246L13.1219 5.58125C11.7479 6.95625 11.6379 9.12425 12.7919 10.6262L20.1459 3.27225C20.3409 3.07725 20.6579 3.07725 20.8529 3.27225C21.0479 3.46725 21.0479 3.78425 20.8529 3.97925L13.4989 11.3332C15.0009 12.4882 17.1689 12.3772 18.5439 11.0032L23.1469 6.40025C23.3419 6.20525 23.6589 6.20525 23.8539 6.40025C24.0489 6.59525 24.0489 6.91225 23.8539 7.10725L19.2509 11.7102C18.3089 12.6522 17.0709 13.1232 15.8329 13.1232C14.7519 13.1232 13.6719 12.7642 12.7869 12.0452ZM6.68288 13.8762C6.77588 13.9522 6.88788 13.9892 6.99888 13.9892C7.14388 13.9892 7.28788 13.9272 7.38688 13.8052C7.56188 13.5922 7.52988 13.2762 7.31588 13.1012C2.49788 9.16025 1.00088 3.71125 1.00088 2.17325V1.80625C1.00088 1.39725 1.24988 1.23625 1.39788 1.17725C1.61588 1.09225 1.96588 1.09025 2.22988 1.36925L8.33188 7.96525C8.51988 8.16825 8.83488 8.18025 9.03888 7.99325C9.24188 7.80525 9.25388 7.48925 9.06688 7.28625L2.95988 0.685246C2.45588 0.152246 1.69688 -0.0207544 1.02788 0.248246C0.393884 0.500246 -0.000116214 1.09725 -0.000116214 1.80825V2.17325C-0.000116214 4.12725 1.68288 9.78625 6.68288 13.8762ZM16.3669 15.1782C16.1789 14.9742 15.8629 14.9622 15.6599 15.1502C15.4569 15.3382 15.4449 15.6542 15.6319 15.8572L16.7169 17.0302C14.9299 16.8022 13.2449 16.3622 11.6909 15.7172C11.4349 15.6122 11.1439 15.7322 11.0369 15.9872C10.9309 16.2422 11.0519 16.5352 11.3069 16.6412C13.2749 17.4582 15.4399 17.9612 17.7429 18.1392L23.1309 23.9642C23.2299 24.0712 23.3639 24.1252 23.4979 24.1252C23.6199 24.1252 23.7409 24.0812 23.8369 23.9922C24.0399 23.8042 24.0519 23.4882 23.8649 23.2852L16.3649 15.1772L16.3669 15.1782Z" fill="#363636"/>
</g>
<defs>
<clipPath id="clip0_1885_5417">
<rect width="24" height="24" fill="white" transform="translate(0 0.125)"/>
</clipPath>
</defs>
</svg>
