<svg width="24" height="25" viewBox="0 0 24 25" fill="none" xmlns="http://www.w3.org/2000/svg">
<g clip-path="url(#clip0_1885_5399)">
<path d="M20.667 9.194C19.047 8.621 18 7.016 18 5.105V0.25H17V3.25C17 6.007 14.757 8.25 12 8.25C9.243 8.25 7 6.007 7 3.25V0.25H6V5.105C6 7.016 4.953 8.622 3.333 9.194L3 9.312V24.25H21V9.312L20.667 9.194ZM6.869 6.358C7.922 8.09 9.828 9.25 12 9.25C14.172 9.25 16.077 8.091 17.131 6.358C17.334 7.314 17.77 8.168 18.387 8.843L4.001 20.69V10.004C5.476 9.356 6.519 8.009 6.87 6.357L6.869 6.358ZM4 21.985L19.142 9.515C19.408 9.706 19.695 9.87 20 10.004V11.514L5.75 23.249H4V21.984V21.985ZM7.322 23.25L20 12.809V23.25H7.322Z" fill="#363636"/>
</g>
<defs>
<clipPath id="clip0_1885_5399">
<rect width="24" height="24" fill="white" transform="translate(0 0.25)"/>
</clipPath>
</defs>
</svg>
