<svg width="13" height="13" viewBox="0 0 13 13" fill="none" xmlns="http://www.w3.org/2000/svg">
<g id="7148718_bookmark_book_favorite_tag_icon 1">
<path id="Vector" d="M2.34845 12.9995C2.18632 12.9998 2.02627 12.9624 1.88058 12.8903C1.66662 12.7833 1.48724 12.6165 1.36356 12.4096C1.23988 12.2027 1.17706 11.9641 1.1825 11.7222V1.27734C1.17043 0.95176 1.28594 0.634579 1.50375 0.395197C1.72156 0.155814 2.02394 0.0137191 2.34474 0H10.6549C10.9757 0.0137191 11.2781 0.155814 11.4959 0.395197C11.7137 0.634579 11.8292 0.95176 11.8171 1.27734V11.7222C11.8226 11.9641 11.7598 12.2027 11.6361 12.4096C11.5124 12.6165 11.333 12.7833 11.1191 12.8903C10.9315 12.9825 10.7216 13.0177 10.5147 12.9916C10.3078 12.9656 10.1128 12.8793 9.95311 12.7433L6.61122 9.98138C6.58023 9.95432 6.5407 9.93944 6.49982 9.93944C6.45894 9.93944 6.41942 9.95432 6.38843 9.98138L3.04653 12.7433C2.84955 12.9072 2.60317 12.9976 2.34845 12.9995ZM6.49982 8.99793C6.75409 8.99877 7.00043 9.08786 7.19791 9.25039L10.5398 12.0123C10.5635 12.0357 10.5938 12.0509 10.6265 12.0556C10.6592 12.0603 10.6926 12.0544 10.7217 12.0387C10.7769 12.0081 10.8221 11.9619 10.8518 11.9057C10.8815 11.8495 10.8944 11.7857 10.8888 11.7222V1.27734C10.8888 1.10025 10.7774 0.941995 10.6549 0.941995H2.34474C2.2222 0.941995 2.1108 1.10025 2.1108 1.27734V11.7222C2.10529 11.7857 2.11817 11.8495 2.14785 11.9057C2.17753 11.9619 2.22272 12.0081 2.2779 12.0387C2.30707 12.0544 2.34041 12.0603 2.37311 12.0556C2.40581 12.0509 2.43618 12.0357 2.45985 12.0123L5.80174 9.25039C5.99922 9.08786 6.24555 8.99877 6.49982 8.99793Z" fill="#363636"/>
</g>
</svg>
