<svg width="24" height="25" viewBox="0 0 24 25" fill="none" xmlns="http://www.w3.org/2000/svg">
<g clip-path="url(#clip0_1885_5375)">
<path d="M23.931 23.997L21.285 19.498C20.956 18.939 20.48 18.483 19.908 18.18L18.057 17.199L19.326 12.149L23.198 14.117C23.271 14.154 23.348 14.171 23.424 14.171C23.606 14.171 23.782 14.071 23.87 13.898C23.995 13.652 23.897 13.351 23.651 13.226L19.576 11.155L19.925 9.765C20.109 9.041 19.954 8.287 19.499 7.695C19.044 7.103 18.354 6.759 17.608 6.751C16.937 6.744 16.284 6.913 15.692 7.248L10.951 10.106C10.502 10.377 9.934 10.393 9.472 10.146L3.787 7.116C3.765 7.104 3.74 7.104 3.717 7.095C3.347 6.877 2.92 6.749 2.468 6.749C1.714 6.749 1.012 7.087 0.541 7.676C0.07 8.265 -0.104 9.025 0.063 9.768L1.535 15.836C1.692 16.493 2.096 17.049 2.673 17.4C3.073 17.644 3.521 17.769 3.977 17.769C4.009 17.769 4.041 17.758 4.073 17.757L5.72 24.37C5.777 24.598 5.981 24.749 6.205 24.749C6.245 24.749 6.286 24.744 6.326 24.734C6.594 24.667 6.757 24.396 6.691 24.128L5.048 17.53C5.501 17.32 5.881 16.98 6.143 16.541C6.49 15.96 6.588 15.279 6.42 14.623L4.923 8.854L9 11.026C9.772 11.438 10.717 11.412 11.466 10.96L15.333 8.628L14.066 14.106C13.815 15.177 14.308 16.305 15.278 16.856L19.439 19.062C19.848 19.278 20.188 19.604 20.422 20.003L23.068 24.502C23.161 24.661 23.328 24.749 23.5 24.749C23.586 24.749 23.673 24.727 23.753 24.68C23.991 24.54 24.07 24.233 23.931 23.995V23.997ZM5.285 16.029C5.076 16.379 4.743 16.626 4.346 16.723C3.95 16.82 3.541 16.758 3.194 16.546C2.846 16.334 2.603 15.999 2.507 15.602L1.037 9.54C0.938 9.103 1.042 8.651 1.322 8.301C1.602 7.951 2.019 7.75 2.468 7.75C3.137 7.75 3.721 8.202 3.888 8.85L5.451 14.874C5.553 15.269 5.494 15.679 5.285 16.029ZM15.04 14.334L16.509 7.985C16.85 7.847 17.208 7.758 17.596 7.749C18.034 7.754 18.438 7.956 18.705 8.303C18.972 8.65 19.063 9.093 18.955 9.518L17.146 16.715L15.759 15.98C15.185 15.654 14.889 14.978 15.04 14.334ZM18.5 5.75C19.878 5.75 21 4.628 21 3.25C21 1.872 19.878 0.75 18.5 0.75C17.122 0.75 16 1.872 16 3.25C16 4.628 17.122 5.75 18.5 5.75ZM18.5 1.75C19.327 1.75 20 2.423 20 3.25C20 4.077 19.327 4.75 18.5 4.75C17.673 4.75 17 4.077 17 3.25C17 2.423 17.673 1.75 18.5 1.75ZM2.5 5.75C3.878 5.75 5 4.628 5 3.25C5 1.872 3.878 0.75 2.5 0.75C1.122 0.75 0 1.872 0 3.25C0 4.628 1.122 5.75 2.5 5.75ZM2.5 1.75C3.327 1.75 4 2.423 4 3.25C4 4.077 3.327 4.75 2.5 4.75C1.673 4.75 1 4.077 1 3.25C1 2.423 1.673 1.75 2.5 1.75ZM15.001 18.891L13.383 24.391C13.319 24.609 13.12 24.75 12.904 24.75C12.858 24.75 12.81 24.744 12.763 24.729C12.498 24.651 12.346 24.374 12.425 24.108L14.043 18.608C14.121 18.344 14.396 18.189 14.664 18.27C14.929 18.348 15.08 18.625 15.001 18.891Z" fill="#363636"/>
</g>
<defs>
<clipPath id="clip0_1885_5375">
<rect width="24" height="24" fill="white" transform="translate(0 0.75)"/>
</clipPath>
</defs>
</svg>
