<svg width="17" height="17" viewBox="0 0 17 17" fill="none" xmlns="http://www.w3.org/2000/svg">
<g id="bx-heart">
<path id="Vector" d="M8.78384 3.34602C8.00993 2.65188 6.99694 2.26663 5.94559 2.2666C5.38912 2.26717 4.83825 2.37507 4.3247 2.5841C3.81115 2.79313 3.34504 3.09916 2.95321 3.48459C1.28193 5.12173 1.28264 7.6824 2.95463 9.31262L8.16235 14.3924C8.2831 14.5996 8.51607 14.7333 8.78384 14.7333C8.89379 14.7322 9.00196 14.706 9.09965 14.6568C9.19735 14.6076 9.28185 14.5367 9.34638 14.4499L14.6131 9.31262C16.285 7.68171 16.285 5.12173 14.6116 3.48181C14.22 3.0971 13.7543 2.79169 13.2412 2.58314C12.7282 2.37459 12.1779 2.26702 11.6221 2.2666C10.5708 2.26677 9.55783 2.652 8.78384 3.34602ZM13.6073 4.46147C14.7175 5.54989 14.7182 7.25008 13.6087 8.33296L8.78384 13.0393L3.95895 8.33296C2.84951 7.25008 2.85022 5.54989 3.95753 4.46424C4.49734 3.94046 5.20335 3.65225 5.94559 3.65225C6.68782 3.65225 7.39099 3.94046 7.92654 4.46285L8.28168 4.80926C8.34758 4.87366 8.42586 4.92475 8.51202 4.9596C8.59819 4.99446 8.69056 5.0124 8.78384 5.0124C8.87712 5.0124 8.96949 4.99446 9.05566 4.9596C9.14182 4.92475 9.2201 4.87366 9.286 4.80926L9.64114 4.46285C10.7151 3.41738 12.5348 3.42015 13.6073 4.46147Z" fill="#363636"/>
</g>
</svg>
