<svg width="24" height="25" viewBox="0 0 24 25" fill="none" xmlns="http://www.w3.org/2000/svg">
<g clip-path="url(#clip0_1885_5360)">
<path d="M22.522 17.5395L20.631 15.3475C21.104 15.1595 21.502 14.8085 21.748 14.3415C22.123 13.6265 22.072 12.7695 21.572 12.0525L19.243 9.48645C19.899 9.40745 20.474 9.01645 20.779 8.42745C21.118 7.77345 21.066 7.02245 20.606 6.37645L16.011 1.17745C15.251 0.318453 13.748 0.318453 12.99 1.17745L12 2.29645L11.011 1.17745C10.251 0.318453 8.749 0.318453 7.99 1.17745L3.359 6.41945C2.932 7.02245 2.88 7.77345 3.219 8.42745C3.525 9.01645 4.1 9.40645 4.756 9.48645L2.384 12.1045C1.926 12.7695 1.875 13.6265 2.25 14.3415C2.496 14.8085 2.895 15.1595 3.367 15.3475C3.367 15.3475 1.454 17.5675 1.443 17.5825C0.915002 18.3505 0.855002 19.3395 1.289 20.1635C1.723 20.9885 2.57 21.5005 3.502 21.5005H8.999V24.0005C8.999 24.2765 9.223 24.5005 9.499 24.5005C9.775 24.5005 9.999 24.2765 9.999 24.0005V21.5005H13.999V24.0005C13.999 24.2765 14.223 24.5005 14.499 24.5005C14.775 24.5005 14.999 24.2765 14.999 24.0005V21.5005H20.496C21.428 21.5005 22.275 20.9885 22.709 20.1635C23.143 19.3395 23.084 18.3505 22.522 17.5395ZM16.824 19.6975C16.56 20.2005 16.063 20.5005 15.496 20.5005H10V11.0005C10 10.7245 9.776 10.5005 9.5 10.5005C9.224 10.5005 9 10.7245 9 11.0005V20.5005H3.503C2.936 20.5005 2.44 20.2005 2.176 19.6985C1.915 19.2035 1.946 18.6345 2.254 18.1705L4.706 15.3265C4.834 15.1795 4.863 14.9705 4.781 14.7925C4.7 14.6145 4.522 14.5005 4.327 14.5005H4.17C3.729 14.5005 3.342 14.2675 3.137 13.8765C2.932 13.4845 2.958 13.0345 3.167 12.7245L6.241 9.33645C6.374 9.19045 6.408 8.97945 6.328 8.79845C6.248 8.61645 6.069 8.50045 5.871 8.50045H5.003C4.615 8.50045 4.28 8.30145 4.107 7.96745C3.944 7.65145 3.969 7.28845 4.142 7.03845L8.739 1.83945C9.118 1.40945 9.882 1.40945 10.26 1.83945L14.823 6.99545C15.029 7.28845 15.054 7.65045 14.891 7.96745C14.718 8.30145 14.383 8.50045 13.995 8.50045H13.127C12.929 8.50045 12.75 8.61645 12.67 8.79845C12.59 8.97945 12.624 9.19045 12.757 9.33645L15.789 12.6725C16.04 13.0345 16.066 13.4845 15.861 13.8765C15.656 14.2675 15.269 14.5005 14.828 14.5005H14.671C14.476 14.5005 14.298 14.6145 14.217 14.7925C14.135 14.9705 14.164 15.1795 14.292 15.3265L16.73 18.1485C17.052 18.6165 17.087 19.1955 16.824 19.6975ZM21.824 19.6975C21.56 20.1995 21.064 20.4995 20.497 20.4995H17.469C17.552 20.3895 17.644 20.2875 17.71 20.1625C18.143 19.3375 18.084 18.3485 17.522 17.5385L15.631 15.3465C16.104 15.1585 16.502 14.8075 16.748 14.3405C17.123 13.6255 17.072 12.7685 16.572 12.0515L14.243 9.48545C14.899 9.40645 15.474 9.01545 15.779 8.42645C16.118 7.77245 16.066 7.02145 15.606 6.37545L12.665 3.04945L13.738 1.83845C14.117 1.40845 14.881 1.40845 15.259 1.83845L19.822 6.99445C20.028 7.28745 20.053 7.64945 19.89 7.96645C19.717 8.30045 19.382 8.49945 18.994 8.49945H18.126C17.928 8.49945 17.749 8.61545 17.669 8.79745C17.589 8.97845 17.623 9.18945 17.756 9.33545L20.788 12.6715C21.039 13.0335 21.065 13.4835 20.86 13.8755C20.655 14.2665 20.268 14.4995 19.827 14.4995H19.67C19.475 14.4995 19.297 14.6135 19.216 14.7915C19.134 14.9695 19.163 15.1785 19.291 15.3255L21.729 18.1475C22.051 18.6155 22.086 19.1945 21.822 19.6975H21.824Z" fill="#363636"/>
</g>
<defs>
<clipPath id="clip0_1885_5360">
<rect width="24" height="24" fill="white" transform="translate(0 0.5)"/>
</clipPath>
</defs>
</svg>
