<svg width="16" height="16" viewBox="0 0 16 16" fill="none" xmlns="http://www.w3.org/2000/svg">
<g clip-path="url(#clip0_2450_5657)">
<path d="M15.9403 6.2785C15.8018 5.879 15.4463 5.5865 15.0183 5.523L10.8553 4.904L9.04576 1.147C8.85526 0.7525 8.44776 0.5 7.99976 0.5C7.55176 0.5 7.14426 0.7525 6.95376 1.147L5.14426 4.904L0.980759 5.523C0.553259 5.5865 0.197759 5.879 0.0597593 6.2785C-0.0777406 6.679 0.0262594 7.12 0.328259 7.421L3.37926 10.467L2.67176 14.6925C2.59976 15.118 2.78426 15.545 3.14576 15.794C3.34426 15.9305 3.57776 16 3.81126 16C4.00326 16 4.19576 15.953 4.37026 15.8595L7.99976 13.9055L11.6298 15.8595C11.8043 15.953 11.9968 16 12.1883 16C12.4218 16 12.6553 15.9305 12.8543 15.794C13.2158 15.545 13.3993 15.118 13.3278 14.6925L12.6198 10.467L15.6718 7.421C15.9733 7.1195 16.0768 6.6785 15.9403 6.2785ZM11.7938 9.6815C11.5378 9.9365 11.4218 10.296 11.4803 10.6485L12.1883 14.874L8.55826 12.921C8.38426 12.827 8.19226 12.7805 7.99926 12.7805C7.80726 12.7805 7.61476 12.8275 7.44076 12.921L3.81076 14.874L4.51876 10.6485C4.57776 10.296 4.46176 9.9365 4.20576 9.6815L1.15476 6.6355L5.31776 6.0155C5.69826 5.959 6.02576 5.721 6.18926 5.3815L7.99976 1.6255L9.80976 5.382C9.97376 5.7215 10.3008 5.959 10.6808 6.016L14.8448 6.636L11.7938 9.6815Z" fill="#60A5FA"/>
<path d="M7.75862 2L5.17241 6.17857L0 6.64286L3.62069 9.89286V15L8.27586 13.1429L12.4138 15V9.89286L15 6.64286L10.3448 5.25L7.75862 2Z" fill="#60A5FA" stroke="#60A5FA"/>
</g>
<defs>
<clipPath id="clip0_2450_5657">
<rect width="16" height="16" fill="white"/>
</clipPath>
</defs>
</svg>
