<svg width="30" height="30" viewBox="0 0 30 30" fill="none" xmlns="http://www.w3.org/2000/svg">
<g id="bx-link">
<path id="Vector" d="M10.1584 14.5634C11.5547 13.1611 13.9898 13.1611 15.3861 14.5634L16.2574 15.4385L18 13.6883L17.1287 12.8133C15.9666 11.6449 14.4187 11 12.7722 11C11.1258 11 9.57791 11.6449 8.41578 12.8133L5.80067 15.4385C4.64752 16.6004 4 18.174 4 19.8145C4 21.455 4.64752 23.0286 5.80067 24.1904C6.37233 24.7654 7.05149 25.2213 7.79911 25.5318C8.54674 25.8423 9.34809 26.0014 10.1571 26C10.9664 26.0017 11.768 25.8427 12.5158 25.5321C13.2637 25.2216 13.9431 24.7656 14.5148 24.1904L15.3861 23.3154L13.6435 21.5652L12.7722 22.4403C12.0778 23.1347 11.1377 23.5245 10.1577 23.5245C9.17779 23.5245 8.23773 23.1347 7.54325 22.4403C6.85127 21.7431 6.46271 20.7989 6.46271 19.8145C6.46271 18.8301 6.85127 17.8858 7.54325 17.1886L10.1584 14.5634Z" fill="#60A5FA"/>
<path id="Vector_2" d="M14.4852 5.8095L13.6139 6.68458L15.3565 8.43473L16.2278 7.55965C16.9222 6.86528 17.8623 6.47544 18.8423 6.47544C19.8222 6.47544 20.7623 6.86528 21.4567 7.55965C22.1487 8.25683 22.5373 9.20109 22.5373 10.1855C22.5373 11.1699 22.1487 12.1142 21.4567 12.8113L18.8416 15.4366C17.4454 16.8389 15.0102 16.8389 13.6139 15.4366L12.7426 14.5615L11 16.3116L11.8713 17.1867C13.0334 18.3551 14.5813 19 16.2278 19C17.8742 19 19.4221 18.3551 20.5842 17.1867L23.1993 14.5615C24.3525 13.3996 25 11.826 25 10.1855C25 8.54499 24.3525 6.97138 23.1993 5.8095C22.0428 4.65075 20.4759 4 18.8423 4C17.2086 4 15.6417 4.65075 14.4852 5.8095Z" fill="#60A5FA"/>
</g>
</svg>
