<svg width="23" height="23" viewBox="0 0 23 23" fill="none" xmlns="http://www.w3.org/2000/svg">
<g id="7148718_bookmark_book_favorite_tag_icon 7">
<path id="Vector" d="M4.15284 22.8359C3.86591 22.8364 3.58267 22.7712 3.32484 22.6453C2.94618 22.4588 2.62872 22.1679 2.40984 21.807C2.19096 21.4461 2.07978 21.0301 2.08941 20.6081V2.39214C2.06805 1.82432 2.27247 1.27115 2.65794 0.85366C3.04341 0.436171 3.57854 0.188355 4.14627 0.164429H18.8531C19.4208 0.188355 19.956 0.436171 20.3415 0.85366C20.7269 1.27115 20.9313 1.82432 20.91 2.39214V20.6081C20.9196 21.0301 20.8084 21.4461 20.5896 21.807C20.3707 22.1679 20.0532 22.4588 19.6746 22.6453C19.3425 22.8062 18.9711 22.8676 18.605 22.8221C18.2388 22.7766 17.8937 22.6262 17.6111 22.389L11.6968 17.5721C11.642 17.525 11.572 17.499 11.4997 17.499C11.4273 17.499 11.3574 17.525 11.3026 17.5721L5.38827 22.389C5.03966 22.6748 4.60363 22.8325 4.15284 22.8359ZM11.4997 15.857C11.9497 15.8585 12.3856 16.0138 12.7351 16.2973L18.6494 21.1141C18.6913 21.1549 18.745 21.1813 18.8029 21.1896C18.8608 21.1979 18.9198 21.1876 18.9714 21.1601C19.0691 21.1069 19.149 21.0263 19.2016 20.9282C19.2541 20.8302 19.2769 20.7189 19.2671 20.6081V2.39214C19.2671 2.08329 19.07 1.80729 18.8531 1.80729H4.14627C3.92941 1.80729 3.73227 2.08329 3.73227 2.39214V20.6081C3.72252 20.7189 3.7453 20.8302 3.79783 20.9282C3.85035 21.0263 3.93034 21.1069 4.02798 21.1601C4.07961 21.1876 4.13861 21.1979 4.19648 21.1896C4.25435 21.1813 4.3081 21.1549 4.34998 21.1141L10.2643 16.2973C10.6138 16.0138 11.0497 15.8585 11.4997 15.857Z" fill="#60A5FA"/>
<path id="Vector 550" d="M3.48438 20.5606V1.74241L11.151 1.39392C13.4743 1.51008 18.3995 1.74241 19.5147 1.74241C20.6298 1.74241 19.9793 11.9646 19.5147 17.0757V20.5606L18.8177 21.9545L14.2874 18.4697L11.151 16.3788L10.1056 17.0757L8.01468 19.5151L3.83286 21.606L3.48438 20.5606Z" fill="#60A5FA"/>
</g>
</svg>
