<svg width="16" height="16" viewBox="0 0 16 16" stroke="white" stroke-width="0.4" fill="none" xmlns="http://www.w3.org/2000/svg">
<g clip-path="url(#clip0_1690_5510)">
<path d="M13 1.33333H12V0.333333C12 0.149333 11.8507 0 11.6667 0C11.4827 0 11.3333 0.149333 11.3333 0.333333V1.33333H4.66667V0.333333C4.66667 0.149333 4.51733 0 4.33333 0C4.14933 0 4 0.149333 4 0.333333V1.33333H3C1.346 1.33333 0 2.67933 0 4.33333V13C0 14.654 1.346 16 3 16H13C14.654 16 16 14.654 16 13V4.33333C16 2.67933 14.654 1.33333 13 1.33333ZM3 2H13C14.2867 2 15.3333 3.04667 15.3333 4.33333V5.33333H0.666667V4.33333C0.666667 3.04667 1.71333 2 3 2ZM13 15.3333H3C1.71333 15.3333 0.666667 14.2867 0.666667 13V6H15.3333V13C15.3333 14.2867 14.2867 15.3333 13 15.3333ZM12.5653 8.094C12.6933 8.226 12.6907 8.43667 12.5587 8.56533L8.16133 12.848C7.83867 13.1707 7.41333 13.3327 6.98667 13.3327C6.56 13.3327 6.13267 13.17 5.80667 12.8447L3.432 10.5773C3.29933 10.4507 3.294 10.2393 3.42133 10.106C3.54733 9.97267 3.75867 9.96733 3.89267 10.0953L6.272 12.368C6.65933 12.756 7.31333 12.7513 7.692 12.3733L12.0927 8.08733C12.2233 7.96 12.4353 7.96133 12.564 8.094H12.5653Z" fill="white"/>
</g>
<defs>
<clipPath id="clip0_1690_5510">
<rect width="16" height="16" fill="white"/>
</clipPath>
</defs>
</svg>
