<svg width="38" height="38" viewBox="0 0 38 38" fill="none" xmlns="http://www.w3.org/2000/svg">
<path d="M30.875 3.16667H28.5V0.791667C28.5 0.354667 28.1453 0 27.7083 0C27.2713 0 26.9167 0.354667 26.9167 0.791667V3.16667H11.0833V0.791667C11.0833 0.354667 10.7287 0 10.2917 0C9.85467 0 9.5 0.354667 9.5 0.791667V3.16667H7.125C3.19675 3.16667 0 6.36342 0 10.2917V30.875C0 34.8033 3.19675 38 7.125 38H30.875C34.8033 38 38 34.8033 38 30.875V10.2917C38 6.36342 34.8033 3.16667 30.875 3.16667ZM7.125 4.75H30.875C33.9308 4.75 36.4167 7.23583 36.4167 10.2917V12.6667H1.58333V10.2917C1.58333 7.23583 4.06917 4.75 7.125 4.75ZM30.875 36.4167H7.125C4.06917 36.4167 1.58333 33.9308 1.58333 30.875V14.25H36.4167V30.875C36.4167 33.9308 33.9308 36.4167 30.875 36.4167ZM29.8427 19.2232C30.1467 19.5367 30.1403 20.0371 29.8268 20.3427L19.3832 30.514C18.6168 31.2803 17.6067 31.6651 16.5933 31.6651C15.58 31.6651 14.5651 31.2788 13.7908 30.5061L8.151 25.1212C7.83592 24.8203 7.82325 24.3184 8.12567 24.0018C8.42492 23.6851 8.92683 23.6724 9.24508 23.9764L14.896 29.374C15.8159 30.2955 17.3692 30.2844 18.2685 29.3867L28.7201 19.2074C29.0304 18.905 29.5339 18.9082 29.8395 19.2232H29.8427Z" fill="#9D9D9D"/>
</svg>
