<svg width="17" height="17" viewBox="0 0 17 17" fill="none" xmlns="http://www.w3.org/2000/svg">
<path fill-rule="evenodd" clip-rule="evenodd" d="M13.8392 2.95395C14.0826 3.19463 14.0826 3.58484 13.8392 3.82552L3.8682 13.6863C3.62483 13.9269 3.23025 13.9269 2.98688 13.6863C2.74351 13.4456 2.74351 13.0554 2.98688 12.8147L12.9579 2.95395C13.2013 2.71327 13.5958 2.71327 13.8392 2.95395Z" fill="#767676"/>
<path fill-rule="evenodd" clip-rule="evenodd" d="M2.98688 2.95395C3.23025 2.71327 3.62483 2.71327 3.8682 2.95395L13.8392 12.8147C14.0826 13.0554 14.0826 13.4456 13.8392 13.6863C13.5958 13.9269 13.2013 13.9269 12.9579 13.6863L2.98688 3.82552C2.74351 3.58484 2.74351 3.19463 2.98688 2.95395Z" fill="#767676"/>
</svg>
