<svg width="27" height="27" viewBox="0 0 27 27" fill="none" xmlns="http://www.w3.org/2000/svg">
<path fill-rule="evenodd" clip-rule="evenodd" d="M13.5 26.625C20.7487 26.625 26.625 20.7487 26.625 13.5C26.625 6.25126 20.7487 0.375 13.5 0.375C6.25126 0.375 0.375 6.25126 0.375 13.5C0.375 20.7487 6.25126 26.625 13.5 26.625ZM20.1016 9.76518C20.4551 9.34091 20.3978 8.71034 19.9735 8.35678C19.5492 8.00321 18.9187 8.06054 18.5651 8.48482L12.6755 15.5524C12.3288 15.9684 12.1339 16.1988 11.9782 16.3403L11.9723 16.3457L11.9659 16.3409C11.7981 16.214 11.5831 16.0022 11.2002 15.6193L8.37377 12.7929C7.98325 12.4024 7.35008 12.4024 6.95956 12.7929C6.56904 13.1834 6.56904 13.8166 6.95956 14.2071L9.78595 17.0335L9.82676 17.0743C10.1533 17.4009 10.4674 17.7152 10.7596 17.9361C11.087 18.1837 11.5157 18.4165 12.0651 18.3915C12.6145 18.3666 13.0204 18.096 13.324 17.8198C13.595 17.5733 13.8794 17.2319 14.175 16.8771L14.2119 16.8327L20.1016 9.76518Z" fill="#60A5FA"/>
</svg>
