<svg width="41" height="40" viewBox="0 0 41 40" fill="none" xmlns="http://www.w3.org/2000/svg">
<g clip-path="url(#clip0_1690_5404)">
<path d="M17.3334 18.3333C17.3334 19.2533 16.5867 20 15.6667 20C14.7467 20 14.0001 19.2533 14.0001 18.3333C14.0001 17.4133 14.7467 16.6667 15.6667 16.6667C16.5867 16.6667 17.3334 17.4133 17.3334 18.3333ZM25.6667 16.6667C24.7467 16.6667 24.0001 17.4133 24.0001 18.3333C24.0001 19.2533 24.7467 20 25.6667 20C26.5867 20 27.3334 19.2533 27.3334 18.3333C27.3334 17.4133 26.5867 16.6667 25.6667 16.6667ZM40.6667 18.3333C40.6667 21.09 38.4234 23.3333 35.6667 23.3333H34.6667C33.8717 25.2433 32.5167 27.18 30.7917 28.8333C33.4901 31.635 35.1701 35.165 35.6601 39.0633C35.7167 39.52 35.3934 39.9367 34.9367 39.995C34.9017 40 34.8667 40.0017 34.8317 40.0017C34.4184 40.0017 34.0584 39.6933 34.0067 39.2717C33.5601 35.7083 32.0151 32.485 29.5367 29.9333C27.0101 31.9533 23.9001 33.335 20.6701 33.335H20.6667C17.4351 33.335 14.3251 31.9517 11.7967 29.9333C9.31841 32.485 7.77341 35.7083 7.32675 39.2717C7.27508 39.6933 6.91508 40.0017 6.50175 40.0017C6.46675 40.0017 6.43175 40.0017 6.39675 39.995C5.94175 39.9383 5.61675 39.5217 5.67341 39.0633C6.16341 35.165 7.84341 31.6367 10.5417 28.8333C8.81675 27.18 7.46175 25.2433 6.66675 23.3333H5.66675C2.91008 23.3333 0.666748 21.09 0.666748 18.3333C0.666748 15.7933 2.57341 13.6883 5.02841 13.3733C6.22175 5.70167 12.8217 0 20.6667 0C28.5117 0 35.1234 5.71 36.3084 13.3917C38.8001 13.7317 40.6667 15.8183 40.6667 18.3333ZM39.0001 18.3333C39.0001 16.495 37.5051 15 35.6667 15C35.2417 15 34.7901 14.69 34.7417 14.2683C33.9517 7.08333 27.9017 1.66667 20.6667 1.66667C17.9101 1.66667 15.6667 3.91 15.6667 6.66667C15.6667 9.42333 17.9101 11.6667 20.6667 11.6667C23.0967 11.6667 25.1667 9.93333 25.5901 7.54333C25.6701 7.09 26.1101 6.78167 26.5551 6.86833C27.0084 6.94833 27.3101 7.38167 27.2301 7.83333C26.6667 11.02 23.9067 13.3333 20.6667 13.3333C16.9901 13.3333 14.0001 10.3433 14.0001 6.66667C14.0001 5.18833 14.4834 3.82333 15.3001 2.71667C10.6234 4.62667 7.17508 8.965 6.59175 14.2683C6.54008 14.7333 6.03675 15.0717 5.58841 14.9967C3.82841 15.0017 2.33341 16.4967 2.33341 18.335C2.33341 20.1733 3.82841 21.6683 5.66675 21.6683H7.23508C7.58675 21.6683 7.90008 21.8883 8.02008 22.2183C9.65675 26.765 14.9567 31.67 20.6667 31.67H20.6701C26.3784 31.67 31.6767 26.765 33.3134 22.2183C33.4317 21.8883 33.7467 21.6683 34.0984 21.6683H35.6667C37.5051 21.6683 39.0001 20.1733 39.0001 18.335V18.3333Z" fill="#363636"/>
</g>
<defs>
<clipPath id="clip0_1690_5404">
<rect width="40" height="40" fill="white" transform="translate(0.666748)"/>
</clipPath>
</defs>
</svg>
