<svg width="41" height="40" viewBox="0 0 41 40" fill="none" xmlns="http://www.w3.org/2000/svg">
<g clip-path="url(#clip0_1691_5613)">
<path d="M40.3335 13.3334C40.3335 15.9834 39.3735 18.8317 37.4418 21.915C37.1902 21.315 36.8752 20.7384 36.4718 20.21C37.9018 17.72 38.6668 15.415 38.6668 13.3334C38.6668 8.10002 34.2985 3.33335 29.5002 3.33335C25.5768 3.33335 23.5685 4.87835 21.6952 6.59835L14.5435 13.6784C13.5618 14.66 13.3785 16.18 14.1218 17.2117C14.5935 17.8667 15.2868 18.2617 16.0752 18.325C16.8518 18.3834 17.6152 18.1084 18.1652 17.5584L25.9085 9.71669L27.0935 10.8867L24.2885 13.7267L33.2202 21.5667C34.8268 22.975 35.2302 25.3284 34.1585 27.0417C33.4985 28.0984 32.4185 28.8084 31.2002 28.9867C30.8085 29.045 30.4135 29.0484 30.0268 28.9934C30.2435 30.02 30.0885 31.1034 29.5235 32.0084C28.8618 33.0667 27.7818 33.775 26.5635 33.9534C25.9852 34.0384 25.4068 34.0017 24.8602 33.8517C24.9268 34.7084 24.7418 35.575 24.2735 36.32C23.6135 37.3767 22.5335 38.0867 21.3152 38.265C21.1102 38.295 20.9068 38.31 20.7035 38.31C19.6918 38.31 18.7085 37.945 17.9385 37.2684L12.5368 32.4217C4.32516 25.0017 0.333496 18.7584 0.333496 13.3334C0.333496 7.11835 5.39683 1.66669 11.1668 1.66669C14.0935 1.66669 16.1135 2.43835 17.7318 3.48835L16.5118 4.69669C15.1568 3.88835 13.5068 3.33335 11.1668 3.33335C6.37016 3.33335 2.00016 8.10002 2.00016 13.3334C2.00016 18.1917 5.92016 24.1984 13.6518 31.185L19.0435 36.0234C19.5952 36.5084 20.3352 36.7234 21.0735 36.6184C21.8185 36.51 22.4552 36.09 22.8618 35.4384C23.5052 34.4117 23.2368 32.975 22.2368 32.0984L16.6768 26.8134L17.8235 25.6034L24.3085 31.725C24.8435 32.195 25.5852 32.4184 26.3218 32.3067C27.0668 32.1984 27.7035 31.7784 28.1118 31.1267C28.7535 30.1017 28.4852 28.665 27.4852 27.7884L21.2935 22.1834L22.4068 20.9434L28.9252 26.745C29.4802 27.23 30.2168 27.4484 30.9585 27.3417C31.7035 27.2317 32.3385 26.8134 32.7468 26.1617C33.3885 25.135 33.1202 23.6984 32.1202 22.8234L23.1152 14.9184L19.3468 18.735C18.5285 19.5534 17.4318 20.0034 16.2902 20.0034C14.9052 20.0034 13.5185 19.2317 12.7685 18.1884C11.5535 16.5017 11.8102 14.0567 13.3668 12.5L20.5435 5.39669C22.6068 3.50002 24.9785 1.67002 29.4985 1.67002C35.2702 1.67002 40.3318 7.12169 40.3318 13.3367L40.3335 13.3334Z" fill="#363636"/>
</g>
<defs>
<clipPath id="clip0_1691_5613">
<rect width="40" height="40" fill="white" transform="translate(0.333496)"/>
</clipPath>
</defs>
</svg>
