<svg width="58" height="58" viewBox="0 0 58 58" fill="none" xmlns="http://www.w3.org/2000/svg">
<circle cx="29" cy="28.6364" r="28.6364" fill="#ECF5FF"/>
<path d="M36.2973 28.4954L36.1768 28.3711H36.1465C35.7915 28.1333 35.3076 28.1705 34.9931 28.4769C34.9931 28.4769 34.9931 28.477 34.993 28.477L28.2421 35.052L28.2421 35.052L28.2385 35.0556C27.8172 35.4761 27.0729 35.4829 26.6386 35.0479L26.6387 35.0478L26.6317 35.0411L22.9816 31.5546C22.9816 31.5546 22.9816 31.5546 22.9816 31.5546C22.6137 31.2032 22.0304 31.2152 21.6801 31.5843C21.3285 31.9524 21.343 32.5356 21.7098 32.8858L25.3496 36.361C25.9291 36.9376 26.6885 37.2259 27.4455 37.2259C28.2025 37.2259 28.9598 36.9385 29.5349 36.3645L36.2789 29.7963L36.279 29.7962C36.6432 29.4412 36.6505 28.8596 36.2973 28.4954ZM36.6705 17.9996H35.5455V16.8746C35.5455 16.3664 35.1332 15.9542 34.625 15.9542C34.1168 15.9542 33.7046 16.3664 33.7046 16.8746V17.9996H24.2955V16.8746C24.2955 16.3664 23.8832 15.9542 23.375 15.9542C22.8668 15.9542 22.4546 16.3664 22.4546 16.8746V17.9996H21.3296C18.5662 17.9996 16.3182 20.2477 16.3182 23.011V36.3065C16.3182 39.0698 18.5662 41.3178 21.3296 41.3178H36.6705C39.4338 41.3178 41.6818 39.0698 41.6818 36.3065V23.011C41.6818 20.2477 39.4338 17.9996 36.6705 17.9996ZM21.3296 19.8406H36.6705C38.4184 19.8406 39.8409 21.2631 39.8409 23.011V24.136H18.1591V23.011C18.1591 21.2631 19.5816 19.8406 21.3296 19.8406ZM36.6705 39.4769H21.3296C19.5816 39.4769 18.1591 38.0544 18.1591 36.3065V25.9769H39.8409V36.3065C39.8409 38.0544 38.4184 39.4769 36.6705 39.4769Z" fill="#60A5FA" stroke="#60A5FA" stroke-width="0.818182"/>
</svg>
