<svg width="59" height="58" viewBox="0 0 59 58" fill="none" xmlns="http://www.w3.org/2000/svg">
<circle cx="29.4545" cy="28.6364" r="28.6364" fill="#ECF5FF"/>
<path d="M24.5455 29.7277C27.252 29.7277 29.4546 27.5252 29.4546 24.8186C29.4546 22.1121 27.252 19.9095 24.5455 19.9095C21.8389 19.9095 19.6364 22.1121 19.6364 24.8186C19.6364 27.5252 21.8389 29.7277 24.5455 29.7277ZM24.5455 21.0004C26.6509 21.0004 28.3636 22.7132 28.3636 24.8186C28.3636 26.9241 26.6509 28.6368 24.5455 28.6368C22.44 28.6368 20.7273 26.9241 20.7273 24.8186C20.7273 22.7132 22.44 21.0004 24.5455 21.0004ZM32.7273 40.0914V41.1823C32.7273 41.4834 32.4829 41.7277 32.1818 41.7277C31.8807 41.7277 31.6364 41.4834 31.6364 41.1823V40.0914C31.6364 36.1815 28.4553 33.0004 24.5455 33.0004C20.6356 33.0004 17.4546 36.1815 17.4546 40.0914V41.1823C17.4546 41.4834 17.2102 41.7277 16.9091 41.7277C16.608 41.7277 16.3636 41.4834 16.3636 41.1823V40.0914C16.3636 35.5794 20.0335 31.9095 24.5455 31.9095C29.0575 31.9095 32.7273 35.5794 32.7273 40.0914ZM42.5455 35.0328V35.7277C42.5455 36.0288 42.3011 36.2732 42 36.2732C41.6989 36.2732 41.4546 36.0288 41.4546 35.7277V35.0328C41.4546 31.5059 38.5855 28.6368 35.0586 28.6368C33.5782 28.6368 32.3476 28.9717 31.4029 29.6295C31.1542 29.8019 30.8149 29.7419 30.6436 29.4943C30.4724 29.2466 30.5313 28.9074 30.7789 28.735C31.9102 27.9452 33.3502 27.5459 35.0586 27.5459C39.1866 27.5459 42.5455 30.9048 42.5455 35.0328ZM35.4546 25.3641C38.1611 25.3641 40.3636 23.1615 40.3636 20.455C40.3636 17.7484 38.1611 15.5459 35.4546 15.5459C32.748 15.5459 30.5455 17.7484 30.5455 20.455C30.5455 23.1615 32.748 25.3641 35.4546 25.3641ZM35.4546 16.6368C37.56 16.6368 39.2727 18.3495 39.2727 20.455C39.2727 22.5604 37.56 24.2732 35.4546 24.2732C33.3491 24.2732 31.6364 22.5604 31.6364 20.455C31.6364 18.3495 33.3491 16.6368 35.4546 16.6368Z" fill="#60A5FA" stroke="#60A5FA" stroke-width="1.63636"/>
</svg>
