<svg width="40" height="40" viewBox="0 0 40 40" fill="none" xmlns="http://www.w3.org/2000/svg">
<g clip-path="url(#clip0_1690_5406)">
<path d="M39.1667 30C35.675 30 33.785 23.385 33.3333 20.7567V15H35.8333C36.2933 15 36.6667 14.6267 36.6667 14.1667C36.6667 13.7067 36.2933 13.3333 35.8333 13.3333C32.3417 13.3333 30.4517 6.71833 30 4.09V0.833333C30 0.373333 29.6267 0 29.1667 0C28.7067 0 28.3333 0.373333 28.3333 0.833333V3.33333H11.6667V0.833333C11.6667 0.373333 11.2933 0 10.8333 0C10.3733 0 10 0.373333 10 0.833333V4.09C9.54833 6.71833 7.65833 13.3333 4.16667 13.3333C3.70667 13.3333 3.33333 13.7067 3.33333 14.1667C3.33333 14.6267 3.70667 15 4.16667 15H6.66667V20.7567C6.215 23.385 4.325 30 0.833333 30C0.373333 30 0 30.3733 0 30.8333C0 31.2933 0.373333 31.6667 0.833333 31.6667H3.33333V39.1667C3.33333 39.6267 3.70667 40 4.16667 40C4.62667 40 5 39.6267 5 39.1667V31.6667H13.3333V39.1667C13.3333 39.6267 13.7067 40 14.1667 40C14.6267 40 15 39.6267 15 39.1667V31.6667H25V39.1667C25 39.6267 25.3733 40 25.8333 40C26.2933 40 26.6667 39.6267 26.6667 39.1667V31.6667H35V39.1667C35 39.6267 35.3733 40 35.8333 40C36.2933 40 36.6667 39.6267 36.6667 39.1667V31.6667H39.1667C39.6267 31.6667 40 31.2933 40 30.8333C40 30.3733 39.6267 30 39.1667 30ZM31.6667 20H25V15H31.6667V20ZM16.6667 20V15H23.3333V20H16.6667ZM11.5217 5H28.48C28.8367 6.68667 29.9367 10.955 32.2533 13.3333H7.74667C10.0633 10.955 11.165 6.68667 11.5217 5ZM15 15V20H8.33333V15H15ZM8.18833 21.6667H31.8133C32.17 23.3533 33.27 27.6217 35.5867 30H4.41333C6.73 27.6217 7.83167 23.3533 8.18833 21.6667Z" fill="#363636"/>
</g>
<defs>
<clipPath id="clip0_1690_5406">
<rect width="40" height="40" fill="white"/>
</clipPath>
</defs>
</svg>
