<svg width="14" height="17" viewBox="0 0 14 17" fill="none" xmlns="http://www.w3.org/2000/svg">
<path d="M1.70455 16.1932C1.46307 16.1932 1.26065 16.1115 1.0973 15.9482C0.933949 15.7848 0.852273 15.5824 0.852273 15.3409V13.5938C0.596591 13.3097 0.390625 12.9936 0.234375 12.6456C0.078125 12.2976 0 11.9176 0 11.5057V3.40909C0 2.23011 0.546875 1.36719 1.64063 0.820313C2.73438 0.273438 4.46023 0 6.81818 0C9.26136 0 11.0085 0.262784 12.0597 0.788352C13.1108 1.31392 13.6364 2.1875 13.6364 3.40909V11.5057C13.6364 11.9176 13.5582 12.2976 13.402 12.6456C13.2457 12.9936 13.0398 13.3097 12.7841 13.5938V15.3409C12.7841 15.5824 12.7024 15.7848 12.5391 15.9482C12.3757 16.1115 12.1733 16.1932 11.9318 16.1932H11.0795C10.8381 16.1932 10.6357 16.1115 10.4723 15.9482C10.309 15.7848 10.2273 15.5824 10.2273 15.3409V14.4886H3.40909V15.3409C3.40909 15.5824 3.32742 15.7848 3.16406 15.9482C3.00071 16.1115 2.7983 16.1932 2.55682 16.1932H1.70455ZM1.70455 6.81818H11.9318V4.26136H1.70455V6.81818ZM3.83523 11.9318C4.19034 11.9318 4.49219 11.8075 4.74077 11.5589C4.98935 11.3104 5.11364 11.0085 5.11364 10.6534C5.11364 10.2983 4.98935 9.99645 4.74077 9.74787C4.49219 9.49929 4.19034 9.375 3.83523 9.375C3.48011 9.375 3.17827 9.49929 2.92969 9.74787C2.68111 9.99645 2.55682 10.2983 2.55682 10.6534C2.55682 11.0085 2.68111 11.3104 2.92969 11.5589C3.17827 11.8075 3.48011 11.9318 3.83523 11.9318ZM9.80114 11.9318C10.1563 11.9318 10.4581 11.8075 10.7067 11.5589C10.9553 11.3104 11.0795 11.0085 11.0795 10.6534C11.0795 10.2983 10.9553 9.99645 10.7067 9.74787C10.4581 9.49929 10.1563 9.375 9.80114 9.375C9.44602 9.375 9.14418 9.49929 8.8956 9.74787C8.64702 9.99645 8.52273 10.2983 8.52273 10.6534C8.52273 11.0085 8.64702 11.3104 8.8956 11.5589C9.14418 11.8075 9.44602 11.9318 9.80114 11.9318ZM2.08807 2.55682H11.6335C11.4205 2.31534 10.9624 2.11293 10.2592 1.94957C9.55611 1.78622 8.4233 1.70455 6.8608 1.70455C5.34091 1.70455 4.2294 1.79332 3.52628 1.97088C2.82315 2.14844 2.34375 2.34375 2.08807 2.55682ZM3.40909 12.7841H10.2273C10.696 12.7841 11.0973 12.6172 11.4311 12.2834C11.7649 11.9496 11.9318 11.5483 11.9318 11.0795V8.52273H1.70455V11.0795C1.70455 11.5483 1.87145 11.9496 2.20526 12.2834C2.53906 12.6172 2.94034 12.7841 3.40909 12.7841Z" fill="#767676"/>
</svg>
