<svg width="16" height="15" viewBox="0 0 16 15" fill="none" xmlns="http://www.w3.org/2000/svg">
<path d="M3.1137 12.465V13.3173C3.1137 13.5588 3.03203 13.7612 2.86867 13.9245C2.70532 14.0879 2.50291 14.1696 2.26143 14.1696H1.40916C1.16768 14.1696 0.965265 14.0879 0.801913 13.9245C0.638561 13.7612 0.556885 13.5588 0.556885 13.3173V6.49911L2.34666 1.38548C2.43188 1.12979 2.58458 0.923828 2.80475 0.767578C3.02492 0.611328 3.26995 0.533203 3.53984 0.533203H12.9148C13.1847 0.533203 13.4298 0.611328 13.6499 0.767578C13.8701 0.923828 14.0228 1.12979 14.108 1.38548L15.8978 6.49911V13.3173C15.8978 13.5588 15.8161 13.7612 15.6528 13.9245C15.4894 14.0879 15.287 14.1696 15.0455 14.1696H14.1932C13.9518 14.1696 13.7494 14.0879 13.586 13.9245C13.4227 13.7612 13.341 13.5588 13.341 13.3173V12.465H3.1137ZM2.94325 4.79457H13.5114L12.6165 2.23775H3.83813L2.94325 4.79457ZM4.39211 9.9082C4.74723 9.9082 5.04907 9.78391 5.29765 9.53533C5.54623 9.28675 5.67052 8.98491 5.67052 8.62979C5.67052 8.27468 5.54623 7.97283 5.29765 7.72425C5.04907 7.47567 4.74723 7.35138 4.39211 7.35138C4.037 7.35138 3.73515 7.47567 3.48657 7.72425C3.23799 7.97283 3.1137 8.27468 3.1137 8.62979C3.1137 8.98491 3.23799 9.28675 3.48657 9.53533C3.73515 9.78391 4.037 9.9082 4.39211 9.9082ZM12.0626 9.9082C12.4177 9.9082 12.7195 9.78391 12.9681 9.53533C13.2167 9.28675 13.341 8.98491 13.341 8.62979C13.341 8.27468 13.2167 7.97283 12.9681 7.72425C12.7195 7.47567 12.4177 7.35138 12.0626 7.35138C11.7075 7.35138 11.4056 7.47567 11.157 7.72425C10.9084 7.97283 10.7842 8.27468 10.7842 8.62979C10.7842 8.98491 10.9084 9.28675 11.157 9.53533C11.4056 9.78391 11.7075 9.9082 12.0626 9.9082ZM2.26143 10.7605H14.1932V6.49911H2.26143V10.7605Z" fill="#767676"/>
</svg>
