<svg width="35" height="39" viewBox="0 0 35 39" fill="none" xmlns="http://www.w3.org/2000/svg">
<path fill-rule="evenodd" clip-rule="evenodd" d="M17.9579 38.7576C20.2757 37.6327 34.3409 30.2771 34.3409 17.4321C34.3409 8.20642 26.862 0.727539 17.6364 0.727539C8.4107 0.727539 0.931816 8.20642 0.931816 17.4321C0.931816 30.2771 14.997 37.6327 17.3148 38.7576C17.5245 38.8593 17.7482 38.8593 17.9579 38.7576ZM17.6364 24.5914C21.5902 24.5914 24.7955 21.3862 24.7955 17.4323C24.7955 13.4785 21.5902 10.2733 17.6364 10.2733C13.6825 10.2733 10.4773 13.4785 10.4773 17.4323C10.4773 21.3862 13.6825 24.5914 17.6364 24.5914Z" fill="#BFDBFE"/>
</svg>
