<svg width="34" height="39" viewBox="0 0 34 39" fill="none" xmlns="http://www.w3.org/2000/svg">
<path fill-rule="evenodd" clip-rule="evenodd" d="M17.0261 38.7576C19.3439 37.6327 33.4091 30.2771 33.4091 17.4321C33.4091 8.20642 25.9302 0.727539 16.7045 0.727539C7.47888 0.727539 0 8.20642 0 17.4321C0 30.2771 14.0652 37.6327 16.383 38.7576C16.5927 38.8593 16.8164 38.8593 17.0261 38.7576ZM16.7046 24.5914C20.6584 24.5914 23.8637 21.3862 23.8637 17.4323C23.8637 13.4785 20.6584 10.2733 16.7046 10.2733C12.7507 10.2733 9.54547 13.4785 9.54547 17.4323C9.54547 21.3862 12.7507 24.5914 16.7046 24.5914Z" fill="#60A5FA"/>
</svg>
