<svg width="41" height="40" viewBox="0 0 41 40" fill="none" xmlns="http://www.w3.org/2000/svg">
<g clip-path="url(#clip0_1690_5410)">
<path d="M37.5302 8.33333C36.6985 8.33333 35.9502 7.87167 35.5785 7.12667C34.9219 5.815 33.6019 5 32.1369 5H30.6669V0H29.8335C27.5369 0 25.6669 1.87 25.6669 4.16667V7.09333L23.4152 13.3333L9.82853 13.34C8.2702 13.34 6.8052 13.9467 5.70353 15.0483C5.65187 15.1 5.60187 15.1517 5.55353 15.205C4.59687 14.5333 2.32853 12.5017 2.32853 8.33167H0.661865C0.661865 13.2517 3.3502 15.7017 4.60353 16.575C4.2052 17.3733 3.9952 18.2583 3.9952 19.175L4.0002 40.0067H12.3285V29.9983L24.0002 29.9933V40H32.3385L32.3252 30.15L34.5019 18.3333H36.5002C38.7969 18.3333 40.6669 16.4633 40.6669 14.1667V8.33333H37.5302ZM39.0002 14.1667C39.0002 15.545 37.8785 16.6667 36.5002 16.6667H33.1135L30.6719 30V38.3333H25.6669V28.325L10.6619 28.3333V38.34H5.66687L5.66187 19.175C5.66187 18.0617 6.0952 17.015 6.88187 16.2267C7.66853 15.44 8.7152 15.0067 9.8302 15.0067L24.5869 15L27.2852 7.52167L27.3352 4.16667C27.3352 3.08 28.0319 2.15333 29.0019 1.80833V6.66667H32.1385C32.9702 6.66667 33.7185 7.12833 34.0902 7.87333C34.7469 9.185 36.0669 10 37.5319 10H39.0019L39.0002 14.1667Z" fill="#363636"/>
</g>
<defs>
<clipPath id="clip0_1690_5410">
<rect width="40" height="40" fill="white" transform="translate(0.666748)"/>
</clipPath>
</defs>
</svg>
