<svg width="23" height="23" viewBox="0 0 23 23" fill="none" xmlns="http://www.w3.org/2000/svg">
<g id="7148718_bookmark_book_favorite_tag_icon 2">
<path id="Vector" d="M4.15284 22.8357C3.86591 22.8362 3.58267 22.7711 3.32484 22.6452C2.94618 22.4586 2.62872 22.1678 2.40984 21.8069C2.19096 21.446 2.07978 21.03 2.08941 20.608V2.39202C2.06805 1.8242 2.27247 1.27103 2.65794 0.853537C3.04341 0.436049 3.57854 0.188233 4.14627 0.164307H18.8531C19.4208 0.188233 19.956 0.436049 20.3415 0.853537C20.7269 1.27103 20.9313 1.8242 20.91 2.39202V20.608C20.9196 21.03 20.8084 21.446 20.5896 21.8069C20.3707 22.1678 20.0532 22.4586 19.6746 22.6452C19.3425 22.806 18.9711 22.8675 18.605 22.822C18.2388 22.7765 17.8937 22.6261 17.6111 22.3889L11.6968 17.572C11.642 17.5248 11.572 17.4989 11.4997 17.4989C11.4273 17.4989 11.3574 17.5248 11.3026 17.572L5.38827 22.3889C5.03966 22.6747 4.60363 22.8324 4.15284 22.8357ZM11.4997 15.8569C11.9497 15.8583 12.3856 16.0137 12.7351 16.2972L18.6494 21.114C18.6913 21.1548 18.745 21.1812 18.8029 21.1895C18.8608 21.1978 18.9198 21.1874 18.9714 21.16C19.0691 21.1068 19.149 21.0262 19.2016 20.9281C19.2541 20.8301 19.2769 20.7188 19.2671 20.608V2.39202C19.2671 2.08316 19.07 1.80716 18.8531 1.80716H4.14627C3.92941 1.80716 3.73227 2.08316 3.73227 2.39202V20.608C3.72252 20.7188 3.7453 20.8301 3.79783 20.9281C3.85035 21.0262 3.93034 21.1068 4.02798 21.16C4.07961 21.1874 4.13861 21.1978 4.19648 21.1895C4.25435 21.1812 4.3081 21.1548 4.34998 21.114L10.2643 16.2972C10.6138 16.0137 11.0497 15.8583 11.4997 15.8569Z" fill="#A8A8A8"/>
</g>
</svg>
