<svg width="18" height="18" viewBox="0 0 18 18" fill="none" xmlns="http://www.w3.org/2000/svg">
<path d="M1.875 5.875C1.875 3.66586 3.66586 1.875 5.875 1.875H12.125C14.3341 1.875 16.125 3.66586 16.125 5.875V12.125C16.125 14.3341 14.3341 16.125 12.125 16.125H5.875C3.66586 16.125 1.875 14.3341 1.875 12.125V5.875Z" stroke="#767676"/>
<path d="M1.875 10.8749L3.9305 8.81946C4.81283 7.93715 6.27879 8.06933 6.98906 9.09524L7.76644 10.2181C8.43112 11.1781 9.77349 11.367 10.6773 10.6276L11.7242 9.77102C12.5194 9.12038 13.6783 9.17819 14.4048 9.90474L16.125 11.6249" stroke="#767676"/>
<circle cx="12.375" cy="5.625" r="1.125" fill="#767676"/>
</svg>
