<svg width="26" height="24" viewBox="0 0 26 24" fill="none" xmlns="http://www.w3.org/2000/svg">
<g id="Group 316">
<path id="Subtract" fill-rule="evenodd" clip-rule="evenodd" d="M12.9907 0C5.79943 0 0 4.63317 0 10.2579C0 13.9089 2.41256 17.1058 6.03141 18.9313L4.80657 23.4997C4.78347 23.5682 4.77992 23.6416 4.79631 23.712C4.8127 23.7824 4.84838 23.8468 4.89936 23.8981C4.97369 23.9636 5.06934 23.9998 5.16845 24C5.25063 23.9934 5.3286 23.961 5.39115 23.9074L10.6617 20.3584C11.4397 20.4656 12.2239 20.5212 13.0093 20.5251C20.1913 20.5251 26 15.8919 26 10.2579C26 4.62391 20.1727 0 12.9907 0ZM4.54617 8.63568H3.12647C2.9505 8.64078 2.77672 8.59577 2.6254 8.50594C2.55821 8.46391 2.50046 8.40843 2.45575 8.34305C2.41104 8.27767 2.38034 8.20377 2.36558 8.12598C2.36107 8.07666 2.36107 8.02712 2.36558 7.9778C2.36117 7.88552 2.37911 7.79348 2.41788 7.7096C2.45665 7.62572 2.5151 7.55244 2.58828 7.49593C2.75005 7.37893 2.9453 7.31712 3.14502 7.31981H7.42268C7.60005 7.31358 7.77502 7.36214 7.92376 7.45882C7.99252 7.499 8.0515 7.55397 8.09643 7.61968C8.14136 7.68538 8.17112 7.7602 8.18357 7.83878C8.1881 7.885 8.1881 7.93158 8.18357 7.9778C8.18794 8.07141 8.17005 8.1647 8.13134 8.25007C8.09263 8.33544 8.03421 8.41037 7.96087 8.46883C7.80304 8.58569 7.60967 8.64465 7.4134 8.63568H6.0401V13.5098C6.04568 13.6137 6.02959 13.7175 5.99285 13.8148C5.95611 13.9121 5.89952 14.0008 5.82668 14.0751C5.75683 14.1461 5.67286 14.2018 5.58017 14.2385C5.48749 14.2752 5.38812 14.2921 5.28849 14.2882C5.11423 14.2932 4.94366 14.2375 4.80598 14.1307C4.67491 14.0264 4.58595 13.8783 4.55545 13.7137C4.54628 13.646 4.54628 13.5775 4.55545 13.5098L4.54617 8.63568ZM8.86242 7.31072C8.72999 7.39687 8.63414 7.52892 8.59333 7.6814L6.62616 13.0096C6.61573 13.0383 6.6031 13.0676 6.59033 13.0973L6.59033 13.0974C6.55766 13.1734 6.52409 13.2515 6.52409 13.3248C6.50816 13.4167 6.50816 13.5107 6.52409 13.6027C6.51917 13.6551 6.51917 13.7079 6.52409 13.7602C6.55127 13.9139 6.63378 14.0522 6.75607 14.1494C6.88158 14.2435 7.03527 14.2925 7.19218 14.2884C7.33704 14.3066 7.48372 14.274 7.60724 14.1963C7.73076 14.1186 7.82347 14.0005 7.86956 13.8622L8.25928 12.7224H10.6997L11.0894 13.8622C11.1366 13.9978 11.2282 14.1137 11.3494 14.191C11.4706 14.2683 11.6144 14.3026 11.7575 14.2884C11.8506 14.2906 11.9431 14.2737 12.0293 14.2386C12.1155 14.2035 12.1936 14.1511 12.2586 14.0845C12.3257 14.0239 12.3787 13.9493 12.4139 13.8661C12.4492 13.7829 12.4658 13.693 12.4627 13.6027C12.4659 13.544 12.4659 13.4853 12.4627 13.4267C12.4305 13.2855 12.3902 13.1462 12.3421 13.0096L10.4863 7.77405C10.4419 7.58851 10.3293 7.42644 10.1708 7.32C10.0212 7.23509 9.85092 7.19338 9.67898 7.19953H9.32638C9.16433 7.19232 9.00354 7.23085 8.86242 7.31072ZM8.63972 11.6753L9.52124 8.89536L10.3935 11.6753H8.63972ZM12.6752 7.97904C12.6658 7.77108 12.7392 7.56787 12.8793 7.4138C12.9506 7.34202 13.0362 7.28593 13.1305 7.24921C13.2248 7.2125 13.3257 7.1959 13.4268 7.20058C13.6006 7.19855 13.7703 7.25397 13.9093 7.35815C14.0382 7.46684 14.1238 7.61804 14.1506 7.78437C14.1597 7.84891 14.1597 7.91449 14.1506 7.97904V12.8532H16.7023C16.8792 12.8509 17.0531 12.899 17.2034 12.9921C17.271 13.0337 17.329 13.0891 17.3738 13.1545C17.4185 13.22 17.449 13.2941 17.4632 13.3721V13.5111C17.4676 13.6034 17.4497 13.6953 17.4109 13.7792C17.3722 13.863 17.3137 13.9364 17.2405 13.993C17.0788 14.1099 16.8835 14.1716 16.6838 14.169H13.5474C13.3477 14.1818 13.1491 14.1299 12.9814 14.0208C12.8314 13.9088 12.7314 13.7424 12.703 13.5575C12.6963 13.4556 12.6963 13.3534 12.703 13.2516L12.6752 7.97904ZM17.8348 7.41314C17.698 7.56922 17.6251 7.77103 17.6307 7.97838L17.575 13.464C17.5658 13.5317 17.5658 13.6003 17.575 13.668C17.6055 13.8326 17.6944 13.9806 17.8255 14.0849C17.9603 14.1904 18.1275 14.2461 18.2987 14.2425C18.4012 14.2468 18.5034 14.2301 18.5992 14.1934C18.6949 14.1568 18.7822 14.1009 18.8555 14.0293C18.9923 13.8732 19.0652 13.6714 19.0596 13.464V11.9166L19.8855 11.0548L21.6114 13.8347C21.6829 13.965 21.7847 14.0763 21.9083 14.159C22.0225 14.219 22.1506 14.2478 22.2795 14.2425C22.4735 14.2452 22.6629 14.1832 22.8177 14.0664C22.9 13.9965 22.9641 13.9078 23.0045 13.8077C23.0449 13.7076 23.0604 13.5992 23.0496 13.4919V13.4456C22.9984 13.2898 22.9233 13.1428 22.8269 13.01V12.9174L20.9711 10.0448L22.5115 8.35822C22.5794 8.28165 22.6385 8.19783 22.6878 8.10812C22.7361 8.0234 22.7617 7.92759 22.762 7.83008C22.7575 7.8087 22.7575 7.78666 22.762 7.76527C22.7657 7.74693 22.7657 7.72796 22.762 7.70962C22.7488 7.63482 22.7206 7.56347 22.6792 7.49979C22.6377 7.4361 22.5838 7.38136 22.5207 7.33894C22.3868 7.24754 22.2282 7.19903 22.0661 7.19992C21.9552 7.19775 21.8459 7.22672 21.7506 7.2834C21.6494 7.3639 21.5534 7.45046 21.4629 7.54277L19.1153 10.2486V7.97838C19.1199 7.9136 19.1199 7.84849 19.1153 7.78371C19.0853 7.61635 18.9965 7.46523 18.8648 7.35749C18.7129 7.24699 18.5275 7.19216 18.3399 7.20229C18.1522 7.21242 17.9739 7.28694 17.8348 7.41314Z" fill="#A8A8A8"/>
</g>
</svg>
