<svg width="15" height="13" viewBox="0 0 15 13" fill="none" xmlns="http://www.w3.org/2000/svg">
<path d="M2.96753 11.1958V11.9848C2.96753 12.2083 2.89192 12.3957 2.7407 12.5469C2.58949 12.6982 2.40211 12.7738 2.17857 12.7738H1.38961C1.16607 12.7738 0.978692 12.6982 0.827474 12.5469C0.676257 12.3957 0.600648 12.2083 0.600648 11.9848V5.67312L2.25747 0.939352C2.33636 0.702663 2.47772 0.511998 2.68153 0.367355C2.88535 0.222712 3.11217 0.150391 3.36201 0.150391H12.0406C12.2904 0.150391 12.5172 0.222712 12.7211 0.367355C12.9249 0.511998 13.0662 0.702663 13.1451 0.939352L14.8019 5.67312V11.9848C14.8019 12.2083 14.7263 12.3957 14.5751 12.5469C14.4239 12.6982 14.2365 12.7738 14.013 12.7738H13.224C13.0005 12.7738 12.8131 12.6982 12.6619 12.5469C12.5107 12.3957 12.4351 12.2083 12.4351 11.9848V11.1958H2.96753ZM2.80974 4.0952H12.5929L11.7644 1.72831H3.63815L2.80974 4.0952ZM4.15097 8.82896C4.47971 8.82896 4.75913 8.71391 4.98924 8.48379C5.21936 8.25368 5.33441 7.97425 5.33441 7.64552C5.33441 7.31679 5.21936 7.03736 4.98924 6.80725C4.75913 6.57714 4.47971 6.46208 4.15097 6.46208C3.82224 6.46208 3.54282 6.57714 3.3127 6.80725C3.08259 7.03736 2.96753 7.31679 2.96753 7.64552C2.96753 7.97425 3.08259 8.25368 3.3127 8.48379C3.54282 8.71391 3.82224 8.82896 4.15097 8.82896ZM11.2516 8.82896C11.5804 8.82896 11.8598 8.71391 12.0899 8.48379C12.32 8.25368 12.4351 7.97425 12.4351 7.64552C12.4351 7.31679 12.32 7.03736 12.0899 6.80725C11.8598 6.57714 11.5804 6.46208 11.2516 6.46208C10.9229 6.46208 10.6435 6.57714 10.4134 6.80725C10.1832 7.03736 10.0682 7.31679 10.0682 7.64552C10.0682 7.97425 10.1832 8.25368 10.4134 8.48379C10.6435 8.71391 10.9229 8.82896 11.2516 8.82896ZM2.17857 9.61792H13.224V5.67312H2.17857V9.61792Z" fill="#A8A8A8"/>
</svg>
