<svg width="12" height="12" viewBox="0 0 12 12" fill="none" xmlns="http://www.w3.org/2000/svg">
<g id="Layer_1" clip-path="url(#clip0_1885_5211)">
<path id="star" d="M11.9552 4.70888C11.8513 4.40925 11.5847 4.18987 11.2637 4.14225L8.14145 3.678L6.78432 0.86025C6.64144 0.564375 6.33582 0.375 5.99982 0.375C5.66382 0.375 5.35819 0.564375 5.21532 0.86025L3.85819 3.678L0.73557 4.14225C0.414945 4.18987 0.14832 4.40925 0.0448195 4.70888C-0.0583055 5.00925 0.0196945 5.34 0.246195 5.56575L2.53444 7.85025L2.00382 11.0194C1.94982 11.3385 2.08819 11.6587 2.35932 11.8455C2.50819 11.9479 2.68332 12 2.85844 12C3.00244 12 3.14682 11.9648 3.27769 11.8946L5.99982 10.4291L8.72232 11.8946C8.8532 11.9648 8.99757 12 9.1412 12C9.31632 12 9.49144 11.9479 9.64069 11.8455C9.91182 11.6587 10.0494 11.3385 9.99582 11.0194L9.46482 7.85025L11.7538 5.56575C11.9799 5.33962 12.0576 5.00887 11.9552 4.70888ZM8.84532 7.26113C8.65332 7.45238 8.56632 7.722 8.6102 7.98638L9.1412 11.1555L6.41869 9.69075C6.2882 9.62025 6.14419 9.58537 5.99944 9.58537C5.85544 9.58537 5.71107 9.62062 5.58057 9.69075L2.85807 11.1555L3.38907 7.98638C3.43332 7.722 3.34632 7.45238 3.15432 7.26113L0.866069 4.97662L3.98832 4.51163C4.27369 4.46925 4.51932 4.29075 4.64194 4.03612L5.99982 1.21912L7.35732 4.0365C7.48032 4.29113 7.72557 4.46925 8.01057 4.512L11.1336 4.977L8.84532 7.26113Z" fill="#A8A8A8"/>
</g>
<defs>
<clipPath id="clip0_1885_5211">
<rect width="12" height="12" fill="white"/>
</clipPath>
</defs>
</svg>
