<?xml version="1.0" standalone="no"?>
<!DOCTYPE svg PUBLIC "-//W3C//DTD SVG 20010904//EN"
 "http://www.w3.org/TR/2001/REC-SVG-20010904/DTD/svg10.dtd">
<svg xmlns="http://www.w3.org/2000/svg" width="35" height="35" viewBox="0 0 35 35" fill="none">
  <circle cx="17.5" cy="17.5" r="17.5" fill="#C8C8C8"/>

 

<g transform="translate(0.000000,50.000000) scale(0.05400,-0.088888)"
fill="#000000" stroke="none">
<path d="M400 531 c-11 -5 -41 -31 -67 -59 -38 -40 -48 -58 -48 -84 1 -40 23
-73 45 -65 17 7 20 23 5 32 -21 13 -9 56 26 95 44 49 77 59 104 35 27 -24 25
-47 -5 -83 -50 -59 -16 -74 35 -15 27 30 31 42 26 71 -3 20 -13 44 -23 54 -22
21 -70 31 -98 19z"/>
<path d="M343 384 c-3 -8 -1 -20 6 -27 21 -21 11 -53 -32 -95 -27 -27 -52 -42
-68 -42 -54 0 -65 49 -23 100 21 24 24 34 15 43 -20 20 -81 -54 -81 -98 0 -50
36 -85 88 -85 35 0 45 7 95 59 60 63 67 83 42 131 -17 33 -32 38 -42 14z"/>
</g>
</svg>
