<svg width="16" height="17"  stroke="black" stroke-width="0.4" viewBox="0 0 16 17" fill="none" xmlns="http://www.w3.org/2000/svg">
<g clip-path="url(#clip0_1690_5514)">
<path d="M5 9.16667C6.654 9.16667 8 7.82067 8 6.16667C8 4.51267 6.654 3.16667 5 3.16667C3.346 3.16667 2 4.51267 2 6.16667C2 7.82067 3.346 9.16667 5 9.16667ZM5 3.83333C6.28667 3.83333 7.33333 4.88 7.33333 6.16667C7.33333 7.45333 6.28667 8.5 5 8.5C3.71333 8.5 2.66667 7.45333 2.66667 6.16667C2.66667 4.88 3.71333 3.83333 5 3.83333ZM10 15.5V16.1667C10 16.3507 9.85067 16.5 9.66667 16.5C9.48267 16.5 9.33333 16.3507 9.33333 16.1667V15.5C9.33333 13.1107 7.38933 11.1667 5 11.1667C2.61067 11.1667 0.666667 13.1107 0.666667 15.5V16.1667C0.666667 16.3507 0.517333 16.5 0.333333 16.5C0.149333 16.5 0 16.3507 0 16.1667V15.5C0 12.7427 2.24267 10.5 5 10.5C7.75733 10.5 10 12.7427 10 15.5ZM16 12.4087V12.8333C16 13.0173 15.8507 13.1667 15.6667 13.1667C15.4827 13.1667 15.3333 13.0173 15.3333 12.8333V12.4087C15.3333 10.2533 13.58 8.5 11.4247 8.5C10.52 8.5 9.768 8.70467 9.19067 9.10667C9.03867 9.212 8.83133 9.17533 8.72667 9.024C8.622 8.87267 8.658 8.66533 8.80933 8.56C9.50067 8.07733 10.3807 7.83333 11.4247 7.83333C13.9473 7.83333 16 9.886 16 12.4087ZM11.6667 6.5C13.3207 6.5 14.6667 5.154 14.6667 3.5C14.6667 1.846 13.3207 0.5 11.6667 0.5C10.0127 0.5 8.66667 1.846 8.66667 3.5C8.66667 5.154 10.0127 6.5 11.6667 6.5ZM11.6667 1.16667C12.9533 1.16667 14 2.21333 14 3.5C14 4.78667 12.9533 5.83333 11.6667 5.83333C10.38 5.83333 9.33333 4.78667 9.33333 3.5C9.33333 2.21333 10.38 1.16667 11.6667 1.16667Z" fill="black"/>
</g>
<defs>
<clipPath id="clip0_1690_5514">
<rect width="16" height="16" fill="black" transform="translate(0 0.5)"/>
</clipPath>
</defs>
</svg>
