<svg width="17" height="17" viewBox="0 0 17 17" fill="none" xmlns="http://www.w3.org/2000/svg">
<path fill-rule="evenodd" clip-rule="evenodd" d="M13.8391 2.95382C14.0824 3.1945 14.0824 3.58472 13.8391 3.8254L3.86805 13.6861C3.62468 13.9268 3.2301 13.9268 2.98673 13.6861C2.74336 13.4455 2.74336 13.0552 2.98673 12.8146L12.9577 2.95382C13.2011 2.71315 13.5957 2.71315 13.8391 2.95382Z" fill="#767676"/>
<path fill-rule="evenodd" clip-rule="evenodd" d="M2.98673 2.95382C3.2301 2.71315 3.62468 2.71315 3.86805 2.95382L13.8391 12.8146C14.0824 13.0552 14.0824 13.4455 13.8391 13.6861C13.5957 13.9268 13.2011 13.9268 12.9577 13.6861L2.98673 3.8254C2.74336 3.58472 2.74336 3.1945 2.98673 2.95382Z" fill="#767676"/>
</svg>
