<svg width="110" height="110" viewBox="0 0 110 110" fill="none" xmlns="http://www.w3.org/2000/svg">
<path d="M84.7917 43.5423V28.409C84.7917 27.2889 84.7917 26.7288 84.5737 26.301C84.3819 25.9247 84.076 25.6187 83.6996 25.427C83.2718 25.209 82.7118 25.209 81.5917 25.209H23.825C22.7049 25.209 22.1448 25.209 21.717 25.427C21.3407 25.6187 21.0347 25.9247 20.843 26.301C20.625 26.7288 20.625 27.2889 20.625 28.409V67.8423C20.625 68.9624 20.625 69.5225 20.843 69.9503C21.0347 70.3266 21.3407 70.6326 21.717 70.8243C22.1448 71.0423 22.7049 71.0423 23.825 71.0423H61.875" stroke="#363636" stroke-width="2" stroke-linecap="round"/>
<path d="M34.375 57.291H52.7083" stroke="#363636" stroke-width="2" stroke-linecap="round"/>
<path d="M34.375 38.959H66.4583" stroke="#363636" stroke-width="2" stroke-linecap="round"/>
<circle cx="80.2083" cy="61.8744" r="10.4583" stroke="#363636" stroke-width="2"/>
<path d="M89.375 84.7923C89.375 84.7923 87.0833 80.209 80.2083 80.209C73.3333 80.209 71.0417 84.7923 71.0417 84.7923" stroke="#363636" stroke-width="2" stroke-linecap="round"/>
</svg>
