<svg width="100" height="100" viewBox="0 0 100 100" fill="none" xmlns="http://www.w3.org/2000/svg">
<path d="M20.1124 29.7392L19.2214 29.2852H19.2214L20.1124 29.7392ZM21.9508 78.0466L22.6579 78.7537H22.6579L21.9508 78.0466ZM61.25 68.7474V69.7474V68.7474ZM74.4249 67.385L73.9709 66.494L74.4249 67.385ZM79.8876 61.9223L80.7786 62.3763L79.8876 61.9223ZM79.8876 29.7392L80.7786 29.2852V29.2852L79.8876 29.7392ZM74.4249 24.2765L73.9709 25.1675L74.4249 24.2765ZM25.5751 24.2765L25.1211 23.3855V23.3855L25.5751 24.2765ZM30.0296 69.9678L29.3225 69.2607L30.0296 69.9678ZM32.9759 68.7474V69.7474V68.7474ZM19.75 42.9141C19.75 39.3972 19.7508 36.8198 19.917 34.7855C20.0822 32.763 20.406 31.3657 21.0034 30.1932L19.2214 29.2852C18.4564 30.7866 18.099 32.4764 17.9236 34.6227C17.7492 36.7572 17.75 39.4302 17.75 42.9141H19.75ZM19.75 47.9141V42.9141H17.75V47.9141H19.75ZM17.75 47.9141V68.7474H19.75V47.9141H17.75ZM17.75 68.7474V76.7207H19.75V68.7474H17.75ZM17.75 76.7207C17.75 79.2821 20.8468 80.5648 22.6579 78.7537L21.2437 77.3395C20.6925 77.8907 19.75 77.5003 19.75 76.7207H17.75ZM22.6579 78.7537L30.7367 70.6749L29.3225 69.2607L21.2437 77.3395L22.6579 78.7537ZM61.25 67.7474L32.9759 67.7474L32.9759 69.7474L61.25 69.7474V67.7474ZM73.9709 66.494C72.7984 67.0914 71.4011 67.4152 69.3785 67.5804C67.3443 67.7466 64.7668 67.7474 61.25 67.7474V69.7474C64.7338 69.7474 67.4068 69.7482 69.5414 69.5738C71.6876 69.3984 73.3775 69.041 74.8789 68.276L73.9709 66.494ZM78.9966 61.4683C77.894 63.6322 76.1348 65.3914 73.9709 66.494L74.8789 68.276C77.4191 66.9817 79.4843 64.9165 80.7786 62.3763L78.9966 61.4683ZM80.25 48.7474C80.25 52.2642 80.2492 54.8417 80.083 56.8759C79.9178 58.8985 79.594 60.2958 78.9966 61.4683L80.7786 62.3763C81.5436 60.8749 81.901 59.185 82.0764 57.0388C82.2508 54.9042 82.25 52.2312 82.25 48.7474H80.25ZM80.25 42.9141V48.7474H82.25V42.9141H80.25ZM78.9966 30.1932C79.594 31.3657 79.9178 32.763 80.083 34.7855C80.2492 36.8198 80.25 39.3972 80.25 42.9141H82.25C82.25 39.4302 82.2508 36.7572 82.0764 34.6227C81.901 32.4764 81.5436 30.7866 80.7786 29.2852L78.9966 30.1932ZM73.9709 25.1675C76.1348 26.27 77.894 28.0293 78.9966 30.1932L80.7786 29.2852C79.4843 26.745 77.4191 24.6798 74.8789 23.3855L73.9709 25.1675ZM61.25 23.9141C64.7668 23.9141 67.3443 23.9148 69.3785 24.081C71.4011 24.2463 72.7984 24.5701 73.9709 25.1675L74.8789 23.3855C73.3775 22.6205 71.6876 22.263 69.5414 22.0877C67.4068 21.9133 64.7338 21.9141 61.25 21.9141V23.9141ZM38.75 23.9141H61.25V21.9141H38.75V23.9141ZM26.0291 25.1675C27.2016 24.5701 28.5989 24.2463 30.6215 24.081C32.6557 23.9148 35.2332 23.9141 38.75 23.9141V21.9141C35.2662 21.9141 32.5932 21.9133 30.4586 22.0877C28.3124 22.263 26.6225 22.6205 25.1211 23.3855L26.0291 25.1675ZM21.0034 30.1932C22.106 28.0293 23.8652 26.27 26.0291 25.1675L25.1211 23.3855C22.5809 24.6798 20.5157 26.745 19.2214 29.2852L21.0034 30.1932ZM30.7367 70.6749C31.3306 70.081 32.136 69.7474 32.9759 69.7474L32.9759 67.7474C31.6056 67.7474 30.2914 68.2917 29.3225 69.2607L30.7367 70.6749Z" fill="#222222"/>
<path d="M35 39.582L64.1667 39.582" stroke="#222222" stroke-width="2" stroke-linecap="round" stroke-linejoin="round"/>
<path d="M40 52.082L60.8333 52.082" stroke="#222222" stroke-width="2" stroke-linecap="round" stroke-linejoin="round"/>
</svg>
