<svg width="80" height="80" viewBox="0 0 80 80" fill="none" xmlns="http://www.w3.org/2000/svg">
<path d="M69.4667 15.3669C67.7642 13.6636 65.7427 12.3124 63.5179 11.3905C61.293 10.4686 58.9083 9.99414 56.5 9.99414C54.0917 9.99414 51.707 10.4686 49.4822 11.3905C47.2573 12.3124 45.2359 13.6636 43.5333 15.3669L40 18.9002L36.4667 15.3669C33.0277 11.9279 28.3634 9.99592 23.5 9.99592C18.6366 9.99592 13.9723 11.9279 10.5333 15.3669C7.09436 18.8059 5.16237 23.4701 5.16237 28.3336C5.16237 33.197 7.09436 37.8613 10.5333 41.3002L40 70.7669L69.4667 41.3002C71.17 39.5977 72.5212 37.5763 73.4431 35.3514C74.3649 33.1265 74.8394 30.7418 74.8394 28.3336C74.8394 25.9253 74.3649 23.5406 73.4431 21.3157C72.5212 19.0908 71.17 17.0694 69.4667 15.3669Z" stroke="#363636" stroke-width="2" stroke-linecap="round" stroke-linejoin="round"/>
</svg>
