<svg width="40" height="40" viewBox="0 0 40 40" fill="none" xmlns="http://www.w3.org/2000/svg">
<g clip-path="url(#clip0_1690_5422)">
<path d="M22.4351 12.7433C24.2101 10.9683 25.0717 9.125 24.9951 7.26833C24.8734 4.355 22.5101 2.32167 22.4867 2.30333C22.1351 2.005 22.0917 1.48 22.3884 1.12833C22.6867 0.78 23.2117 0.733333 23.5634 1.03C23.6834 1.13333 26.5101 3.56333 26.6601 7.19833C26.7584 9.54 25.7334 11.8033 23.6134 13.9217C23.4501 14.085 23.2367 14.165 23.0234 14.165C22.8101 14.165 22.5967 14.0833 22.4334 13.9217C22.1084 13.5967 22.1084 13.0683 22.4334 12.7433H22.4351ZM15.0001 5C15.9201 5 16.6667 4.25333 16.6667 3.33333C16.6667 2.41333 15.9201 1.66667 15.0001 1.66667C14.0801 1.66667 13.3334 2.41333 13.3334 3.33333C13.3334 4.25333 14.0801 5 15.0001 5ZM35.0001 11.6667C35.9201 11.6667 36.6667 10.92 36.6667 10C36.6667 9.08 35.9201 8.33333 35.0001 8.33333C34.0801 8.33333 33.3334 9.08 33.3334 10C33.3334 10.92 34.0801 11.6667 35.0001 11.6667ZM3.3334 6.66667C4.2534 6.66667 5.00006 5.92 5.00006 5C5.00006 4.08 4.2534 3.33333 3.3334 3.33333C2.4134 3.33333 1.66673 4.08 1.66673 5C1.66673 5.92 2.4134 6.66667 3.3334 6.66667ZM34.9617 18.3383C33.3117 18.26 31.7234 18.9833 30.2434 20.4617C29.9184 20.7867 29.9184 21.315 30.2434 21.64C30.4067 21.8033 30.6201 21.8833 30.8334 21.8833C31.0467 21.8833 31.2601 21.8017 31.4234 21.64C32.5551 20.5083 33.7517 19.9567 34.8801 20.0017C36.7034 20.0717 38.0184 21.5767 38.0317 21.5917C38.3317 21.94 38.8567 21.9817 39.2051 21.685C39.5534 21.3867 39.5984 20.865 39.3017 20.5133C39.2301 20.4283 37.5217 18.445 34.9634 18.3383H34.9617ZM38.3334 0C37.4134 0 36.6667 0.746667 36.6667 1.66667C36.6667 2.58667 37.4134 3.33333 38.3334 3.33333C39.2534 3.33333 40.0001 2.58667 40.0001 1.66667C40.0001 0.746667 39.2534 0 38.3334 0ZM25.9717 30.6033L4.23673 39.7533C3.8434 39.92 3.43506 40 3.0334 40C2.25006 40 1.49173 39.69 0.900064 39.1C0.0067304 38.2067 -0.244936 36.9283 0.245064 35.7633L9.39673 14.0267C9.89673 12.84 10.9484 11.9833 12.2117 11.7367C13.4701 11.495 14.7717 11.885 15.6834 12.7967L27.2017 24.315C28.1117 25.225 28.5067 26.5233 28.2601 27.7867C28.0134 29.05 27.1567 30.1033 25.9701 30.6017L25.9717 30.6033ZM9.1734 18.86C9.1834 18.8633 9.1834 18.86 9.1784 18.8483L9.1734 18.86ZM19.5467 31.5L8.50173 20.455L1.78173 36.4133C1.55673 36.9483 1.66673 37.5133 2.0784 37.9233C2.49006 38.3333 3.0534 38.4433 3.5884 38.2183L19.5467 31.5ZM21.1534 30.8233C21.1434 30.8183 21.1384 30.8183 21.1417 30.8283L21.1534 30.8233ZM26.0267 25.495L14.5084 13.9767C14.0884 13.5567 13.5434 13.3317 12.9701 13.3317C12.8267 13.3317 12.6817 13.3467 12.5351 13.3733C11.8067 13.5167 11.2234 13.99 10.9367 14.675L9.20173 18.7967L21.2067 30.8017L25.3267 29.0667C26.0117 28.7783 26.4851 28.195 26.6284 27.4667C26.7701 26.7367 26.5517 26.02 26.0267 25.4933V25.495ZM36.6701 28.3333C35.7501 28.3333 35.0034 29.08 35.0034 30C35.0034 30.92 35.7501 31.6667 36.6701 31.6667C37.5901 31.6667 38.3367 30.92 38.3367 30C38.3367 29.08 37.5901 28.3333 36.6701 28.3333ZM28.3367 36.6667C27.4167 36.6667 26.6701 37.4133 26.6701 38.3333C26.6701 39.2533 27.4167 40 28.3367 40C29.2567 40 30.0034 39.2533 30.0034 38.3333C30.0034 37.4133 29.2567 36.6667 28.3367 36.6667Z" fill="#363636"/>
</g>
<defs>
<clipPath id="clip0_1690_5422">
<rect width="40" height="40" fill="white"/>
</clipPath>
</defs>
</svg>
