<svg width="14" height="17" viewBox="0 0 14 17" fill="none" xmlns="http://www.w3.org/2000/svg">
<path d="M1.93178 16.4432C1.6903 16.4432 1.48789 16.3615 1.32454 16.1982C1.16118 16.0348 1.07951 15.8324 1.07951 15.5909V13.8438C0.823825 13.5597 0.617859 13.2436 0.461609 12.8956C0.305359 12.5476 0.227234 12.1676 0.227234 11.7557V3.65909C0.227234 2.48011 0.774109 1.61719 1.86786 1.07031C2.96161 0.523438 4.68746 0.25 7.04542 0.25C9.4886 0.25 11.2358 0.512784 12.2869 1.03835C13.338 1.56392 13.8636 2.4375 13.8636 3.65909V11.7557C13.8636 12.1676 13.7855 12.5476 13.6292 12.8956C13.473 13.2436 13.267 13.5597 13.0113 13.8438V15.5909C13.0113 15.8324 12.9297 16.0348 12.7663 16.1982C12.6029 16.3615 12.4005 16.4432 12.1591 16.4432H11.3068C11.0653 16.4432 10.8629 16.3615 10.6995 16.1982C10.5362 16.0348 10.4545 15.8324 10.4545 15.5909V14.7386H3.63633V15.5909C3.63633 15.8324 3.55465 16.0348 3.3913 16.1982C3.22794 16.3615 3.02553 16.4432 2.78405 16.4432H1.93178ZM1.93178 7.06818H12.1591V4.51136H1.93178V7.06818ZM4.06246 12.1818C4.41758 12.1818 4.71942 12.0575 4.968 11.8089C5.21658 11.5604 5.34087 11.2585 5.34087 10.9034C5.34087 10.5483 5.21658 10.2464 4.968 9.99787C4.71942 9.74929 4.41758 9.625 4.06246 9.625C3.70735 9.625 3.4055 9.74929 3.15692 9.99787C2.90834 10.2464 2.78405 10.5483 2.78405 10.9034C2.78405 11.2585 2.90834 11.5604 3.15692 11.8089C3.4055 12.0575 3.70735 12.1818 4.06246 12.1818ZM10.0284 12.1818C10.3835 12.1818 10.6853 12.0575 10.9339 11.8089C11.1825 11.5604 11.3068 11.2585 11.3068 10.9034C11.3068 10.5483 11.1825 10.2464 10.9339 9.99787C10.6853 9.74929 10.3835 9.625 10.0284 9.625C9.67326 9.625 9.37141 9.74929 9.12283 9.99787C8.87425 10.2464 8.74996 10.5483 8.74996 10.9034C8.74996 11.2585 8.87425 11.5604 9.12283 11.8089C9.37141 12.0575 9.67326 12.1818 10.0284 12.1818ZM2.3153 2.80682H11.8608C11.6477 2.56534 11.1896 2.36293 10.4865 2.19957C9.78334 2.03622 8.65053 1.95455 7.08803 1.95455C5.56814 1.95455 4.45664 2.04332 3.75351 2.22088C3.05039 2.39844 2.57098 2.59375 2.3153 2.80682ZM3.63633 13.0341H10.4545C10.9233 13.0341 11.3245 12.8672 11.6583 12.5334C11.9922 12.1996 12.1591 11.7983 12.1591 11.3295V8.77273H1.93178V11.3295C1.93178 11.7983 2.09868 12.1996 2.43249 12.5334C2.7663 12.8672 3.16758 13.0341 3.63633 13.0341Z" fill="#F6F6F6"/>
</svg>
