<svg width="16" height="14" viewBox="0 0 16 14" fill="none" xmlns="http://www.w3.org/2000/svg">
<path d="M2.55682 11.9318V12.7841C2.55682 13.0256 2.47514 13.228 2.31179 13.3913C2.14844 13.5547 1.94602 13.6364 1.70455 13.6364H0.852273C0.610795 13.6364 0.408381 13.5547 0.245028 13.3913C0.0816761 13.228 0 13.0256 0 12.7841V5.96591L1.78977 0.852273C1.875 0.596591 2.0277 0.390625 2.24787 0.234375C2.46804 0.078125 2.71307 0 2.98295 0H12.358C12.6278 0 12.8729 0.078125 13.093 0.234375C13.3132 0.390625 13.4659 0.596591 13.5511 0.852273L15.3409 5.96591V12.7841C15.3409 13.0256 15.2592 13.228 15.0959 13.3913C14.9325 13.5547 14.7301 13.6364 14.4886 13.6364H13.6364C13.3949 13.6364 13.1925 13.5547 13.0291 13.3913C12.8658 13.228 12.7841 13.0256 12.7841 12.7841V11.9318H2.55682ZM2.38636 4.26136H12.9545L12.0597 1.70455H3.28125L2.38636 4.26136ZM3.83523 9.375C4.19034 9.375 4.49219 9.25071 4.74077 9.00213C4.98935 8.75355 5.11364 8.4517 5.11364 8.09659C5.11364 7.74148 4.98935 7.43963 4.74077 7.19105C4.49219 6.94247 4.19034 6.81818 3.83523 6.81818C3.48011 6.81818 3.17827 6.94247 2.92969 7.19105C2.68111 7.43963 2.55682 7.74148 2.55682 8.09659C2.55682 8.4517 2.68111 8.75355 2.92969 9.00213C3.17827 9.25071 3.48011 9.375 3.83523 9.375ZM11.5057 9.375C11.8608 9.375 12.1626 9.25071 12.4112 9.00213C12.6598 8.75355 12.7841 8.4517 12.7841 8.09659C12.7841 7.74148 12.6598 7.43963 12.4112 7.19105C12.1626 6.94247 11.8608 6.81818 11.5057 6.81818C11.1506 6.81818 10.8487 6.94247 10.6001 7.19105C10.3516 7.43963 10.2273 7.74148 10.2273 8.09659C10.2273 8.4517 10.3516 8.75355 10.6001 9.00213C10.8487 9.25071 11.1506 9.375 11.5057 9.375ZM1.70455 10.2273H13.6364V5.96591H1.70455V10.2273Z" fill="#F6F6F6"/>
</svg>
