<svg width="15" height="15" viewBox="0 0 15 15" fill="none" xmlns="http://www.w3.org/2000/svg">
<g id="Layer_1" clip-path="url(#clip0_1833_7863)">
<path id="star" d="M14.944 5.88609C14.8142 5.51156 14.4809 5.23734 14.0796 5.17781L10.1768 4.5975L8.4804 1.07531C8.30181 0.705469 7.91977 0.46875 7.49977 0.46875C7.07977 0.46875 6.69774 0.705469 6.51915 1.07531L4.82274 4.5975L0.919462 5.17781C0.518681 5.23734 0.185399 5.51156 0.0560244 5.88609C-0.0728819 6.26156 0.0246182 6.675 0.307743 6.95719L3.16806 9.81281L2.50477 13.7742C2.43727 14.1731 2.61024 14.5734 2.94915 14.8069C3.13524 14.9348 3.35415 15 3.57306 15C3.75306 15 3.93352 14.9559 4.09712 14.8683L7.49977 13.0364L10.9029 14.8683C11.0665 14.9559 11.247 15 11.4265 15C11.6454 15 11.8643 14.9348 12.0509 14.8069C12.3898 14.5734 12.5618 14.1731 12.4948 13.7742L11.831 9.81281L14.6923 6.95719C14.9749 6.67453 15.072 6.26109 14.944 5.88609ZM11.0567 9.07641C10.8167 9.31547 10.7079 9.6525 10.7627 9.98297L11.4265 13.9444L8.02337 12.1134C7.86024 12.0253 7.68024 11.9817 7.49931 11.9817C7.31931 11.9817 7.13884 12.0258 6.97571 12.1134L3.57259 13.9444L4.23634 9.98297C4.29165 9.6525 4.1829 9.31547 3.9429 9.07641L1.08259 6.22078L4.9854 5.63953C5.34212 5.58656 5.64915 5.36344 5.80243 5.04516L7.49977 1.52391L9.19665 5.04562C9.3504 5.36391 9.65696 5.58656 10.0132 5.64L13.917 6.22125L11.0567 9.07641Z" fill="white"/>
</g>
<defs>
<clipPath id="clip0_1833_7863">
<rect width="15" height="15" fill="white"/>
</clipPath>
</defs>
</svg>
